<svg width="24" height="21" viewBox="0 0 24 21" fill="none" xmlns="http://www.w3.org/2000/svg">
<path d="M20.0231 0.230242C20.8974 -0.164859 22.0169 -0.0463284 22.7526 0.546323C23.4349 1.05995 23.7761 1.92918 23.6162 2.72926C23.4989 3.40093 23.0511 4.02321 22.422 4.35905C21.6437 4.80354 20.5988 4.79366 19.8205 4.34917C19.2448 4.04297 18.8396 3.4997 18.6584 2.90705C17.4323 2.66999 16.2061 2.42305 14.98 2.16624C14.4256 3.77627 13.8818 5.39619 13.3274 7.00622C15.1613 7.14451 16.9738 7.51985 18.6477 8.22116C19.0849 7.77667 19.6286 7.40132 20.279 7.27292C21.3345 7.00622 22.5073 7.36181 23.2323 8.1125C23.7121 8.5965 23.9574 9.22867 24 9.88058V10.0683C23.9574 10.7696 23.6268 11.4116 23.1364 11.9351C23.6482 13.0216 23.7761 14.2761 23.3816 15.412C22.8592 16.9529 21.5797 18.1678 20.1191 19.0074C17.8801 20.3211 15.2146 20.9039 12.5917 20.9928C9.95824 21.0619 7.2821 20.6372 4.91515 19.5507C3.20924 18.7506 1.59929 17.5653 0.820968 15.896C0.2239 14.6514 0.266548 13.1797 0.863616 11.945C0.383829 11.4116 0.0319858 10.7696 0 10.0683V9.8707C0.0426477 9.39658 0.170591 8.91258 0.458463 8.50761C1.00222 7.66802 2.05775 7.15439 3.10262 7.18402C3.9769 7.21365 4.79787 7.61863 5.35229 8.22116C7.29276 7.40132 9.42514 7.0161 11.5469 6.97659C12.2079 5.01096 12.8903 3.04534 13.5513 1.08959C13.6473 0.684608 14.1057 0.378405 14.5429 0.47718C15.9609 0.763628 17.3789 1.0402 18.797 1.33652C19.0849 0.882159 19.49 0.457425 20.0231 0.230242ZM1.16215 9.33732C0.93825 9.86083 1.02355 10.4634 1.32208 10.9474C2.1004 9.94973 3.14527 9.1694 4.29676 8.56687C3.81697 8.22116 3.16659 8.05324 2.56952 8.19153C1.92981 8.32981 1.38605 8.76442 1.16215 9.33732ZM19.7139 8.55699C20.8654 9.15952 21.9103 9.94973 22.6886 10.9474C22.9125 10.5621 23.0404 10.1078 22.9445 9.66328C22.8272 8.9916 22.2621 8.40883 21.5478 8.22116C20.9294 8.02361 20.2257 8.19153 19.7139 8.55699ZM7.39938 10.6214C6.46113 10.8585 5.7681 11.7376 5.84274 12.6364C5.86406 13.5254 6.63172 14.3255 7.56997 14.4934C8.01777 14.5428 8.4869 14.5329 8.89205 14.3452C9.63838 14.039 10.1502 13.2982 10.1395 12.5376C10.1608 11.7771 9.64905 11.0363 8.89205 10.7399C8.43359 10.5127 7.88983 10.5127 7.39938 10.6214ZM15.4065 10.6214C14.5535 10.8486 13.8925 11.5993 13.8712 12.429C13.8179 13.1698 14.2763 13.9304 14.98 14.2761C15.6197 14.6119 16.462 14.602 17.1017 14.2464C17.7414 13.9007 18.1786 13.2291 18.1679 12.5278C18.1786 11.7573 17.6562 11.0165 16.8992 10.7103C16.4407 10.5226 15.8969 10.5029 15.4065 10.6214ZM8.04976 15.7478C7.6446 15.8367 7.32474 16.2022 7.37805 16.5874C7.39938 17.022 7.83652 17.2788 8.16704 17.5159C9.53176 18.3456 11.2377 18.5234 12.8263 18.4148C14.1377 18.2765 15.5558 17.9505 16.4727 17.0023C16.9098 16.5183 16.462 15.7182 15.7903 15.7281C15.2679 15.7083 15.012 16.2022 14.5642 16.3602C13.4127 16.864 12.08 16.9134 10.8325 16.7553C10.1288 16.6368 9.3825 16.459 8.86006 15.9849C8.65749 15.7873 8.33763 15.6787 8.04976 15.7478Z" fill="#F66512"/>
</svg>
