<svg width="25" height="20" viewBox="0 0 25 20" fill="none" xmlns="http://www.w3.org/2000/svg">
<path d="M25 2.36631C24.0799 2.76787 23.0926 3.0402 22.0552 3.16178C23.1144 2.5371 23.9252 1.54627 24.3095 0.369248C23.3159 0.947741 22.2192 1.3678 21.0507 1.59551C20.1149 0.612368 18.7839 0 17.3076 0C14.4753 0 12.1789 2.26171 12.1789 5.04962C12.1789 5.44501 12.2242 5.8312 12.3117 6.20049C8.05001 5.98967 4.27104 3.97877 1.74183 0.923119C1.29972 1.66781 1.0482 2.53553 1.0482 3.46179C1.0482 5.21424 1.95429 6.76051 3.32905 7.66517C2.48857 7.63749 1.69808 7.40978 1.00605 7.03127V7.09436C1.00605 9.54069 2.77447 11.5824 5.11933 12.0471C4.68971 12.1609 4.23669 12.224 3.76802 12.224C3.43685 12.224 3.11659 12.1917 2.80258 12.1301C3.45556 14.138 5.34899 15.5981 7.59233 15.6381C5.83796 16.9921 3.62586 17.7967 1.2232 17.7967C0.809233 17.7967 0.401471 17.7721 0 17.7275C2.2699 19.163 4.96471 20 7.86104 20C17.2952 20 22.4521 12.304 22.4521 5.62968L22.4349 4.97579C23.4425 4.26799 24.3142 3.37871 25 2.36631Z" fill="#1DADEB"/>
</svg>
