<svg width="109" height="42" viewBox="0 0 109 42" fill="none" xmlns="http://www.w3.org/2000/svg">
<path d="M14.3177 9.98745C12.6305 9.98745 11.1783 10.4652 9.93959 11.4435C9.19211 12.035 8.44463 13.1043 7.82529 14.037C7.46223 12.3762 6.97103 10.2377 6.97103 10.2377H2.18717C1.93089 10.2377 1.71732 10.4652 1.71732 10.761V12.6947C1.71732 12.9905 1.93089 13.218 2.20852 13.218H4.85673C4.85673 13.218 5.51878 15.7206 5.92456 17.4723C5.36929 18.5416 4.83538 19.4744 4.36553 20.4071C1.69597 25.8217 0.5 29.5528 0.5 33.6479C0.5 38.562 2.52887 41.7243 5.54014 41.7243C9.02125 41.7243 11.1142 38.4027 11.1142 32.6241C11.1142 32.5104 11.1142 32.1464 11.0928 31.9189C11.9257 32.3739 13.1004 32.7379 14.1041 32.7379C17.9696 32.7379 21.1731 30.0078 21.8565 26.254C22.1342 24.707 22.2409 23.2965 22.2409 21.3854C22.2409 19.3379 22.0274 17.5633 21.643 16.1301C20.5538 12.217 17.8842 9.98745 14.3177 9.98745ZM5.54014 38.9033C4.06654 38.9033 3.27635 36.2642 3.27635 33.6707C3.27635 30.3718 4.17332 26.709 6.86424 21.1579C7.65444 25.0255 8.31649 29.7803 8.31649 32.6469C8.31649 34.5124 8.06021 38.9033 5.54014 38.9033ZM19.1015 25.708C18.6744 28.074 16.5174 29.8941 13.9973 29.8941C12.9295 29.8941 11.8403 29.5073 10.8793 29.1661C10.4735 25.5487 9.59788 21.0897 8.80769 17.6316C9.32025 16.6761 9.68331 15.9708 10.5589 14.8333C11.8403 13.1953 13.1004 12.854 14.2963 12.854C17.2222 12.854 18.4395 15.1518 18.952 16.9946C19.1656 17.8136 19.4432 19.2241 19.4432 21.4309C19.4432 23.1372 19.3578 24.343 19.1015 25.708Z" fill="#747577"/>
<path d="M108.308 28.347L106.898 27.1185C106.813 27.0503 106.706 26.982 106.578 26.982C106.45 26.982 106.322 27.0503 106.236 27.1413C105.788 27.7328 104.912 28.6883 104.805 28.8021C104.293 29.3253 103.609 29.7576 102.862 29.7576C101.538 29.7576 100.641 29.3253 100.641 26.8V13.1953H105.19C105.446 13.1953 105.681 12.9677 105.681 12.672V10.7382C105.681 10.4652 105.467 10.2149 105.19 10.2149H100.662V4.64109C100.662 4.36808 100.449 4.14058 100.171 4.14058H98.3557C98.0994 4.14058 97.8645 4.36808 97.8645 4.66384V10.2377H95.6647C95.4085 10.2377 95.1735 10.4652 95.1735 10.761V12.6947C95.1735 12.9905 95.3871 13.218 95.6647 13.218H97.8858V23.3874C97.2451 24.161 95.4725 26.163 94.6396 27.073C94.4688 27.255 94.2979 27.4143 94.1271 27.5735C93.2087 28.4153 92.205 28.9386 91.009 29.3253C89.5781 29.8031 88.3394 29.9396 86.4814 29.9396C83.6624 29.9396 82.2955 27.9148 82.2955 27.9148C82.5305 27.6418 85.7553 24.2065 85.7553 24.2065C88.4035 21.2944 90.5392 18.4961 90.9876 17.9728C90.9876 17.9728 91.5429 17.3586 91.9914 16.4713C92.9738 14.5148 92.9952 12.4672 91.308 11.034C90.4965 10.3514 89.0656 9.89644 86.5668 9.96469C82.8508 10.0557 79.1988 12.3535 78.4514 16.4031C78.2378 17.5178 78.0456 18.7919 78.0456 21.1807C78.0456 21.7722 78.0456 22.5229 78.0883 23.0234C78.131 24.1382 78.2592 25.162 78.43 26.2085C78.5154 26.6863 78.6649 27.0048 78.8358 27.619C78.4514 28.1423 78.0456 28.62 77.469 29.1206C77.0418 29.5073 76.3371 29.6211 75.974 29.6211H75.8459C74.8421 29.6211 74.2014 29.0296 73.4112 28.1195L73.2831 27.9603C72.8987 27.5053 70.0369 23.615 67.9226 20.7029L75.2692 12.4217C75.4401 12.217 75.4401 11.8985 75.2479 11.6937L73.9238 10.3742C73.7316 10.1694 73.4112 10.1922 73.2404 10.3969L65.851 18.7464L64.2706 20.5436V0.52326C64.2706 0.250255 64.0571 0 63.7794 0H61.9641C61.6865 0 61.4729 0.227504 61.4729 0.52326V23.6605C61.238 23.9335 59.978 25.3667 59.0596 26.436C58.2694 27.3688 57.1803 28.5063 55.9629 29.1888C55.0233 29.7121 54.468 29.8941 52.0761 29.8941C49.5773 29.8941 47.4417 28.0513 47.0146 25.708C46.7583 24.343 46.6729 23.1372 46.6729 21.4082C46.6729 19.5654 46.801 18.0411 47.0359 16.8808C47.5271 14.583 49.5987 12.8312 52.0761 12.8312C53.9981 12.8312 55.5785 13.7413 56.3474 15.0608C56.4114 15.1745 56.5396 15.3338 56.6677 15.3565C56.8172 15.402 56.9453 15.3565 57.0521 15.311L58.6539 14.401C58.782 14.3328 58.8888 14.1735 58.8888 13.9688C58.8888 13.8778 58.8674 13.8095 58.8247 13.7413L58.7179 13.5138C57.4579 11.2842 54.9805 9.94194 52.0761 9.94194C48.3173 9.94194 45.0498 12.581 44.2809 16.1983C44.0033 17.5633 43.8538 19.3151 43.8538 21.3627C43.8538 23.2737 43.9606 24.6842 44.2382 26.2313C44.3023 26.618 44.4945 27.2095 44.6226 27.5735C44.6226 27.5735 44.2596 28.0968 43.5334 28.8248C42.5724 29.7803 41.5686 29.6666 41.0988 29.5528C40.3086 29.3708 39.9669 28.5745 39.9455 27.71C39.9455 27.71 39.9455 18.0866 39.9455 17.4268C39.9455 13.0132 36.7207 9.94194 32.1077 9.94194C29.6944 9.94194 27.3238 11.034 25.8075 12.854C25.5512 13.1498 25.3377 13.491 25.1668 13.8323C25.1668 13.8323 25.1028 13.9915 25.1028 14.0825C25.1028 14.2873 25.2095 14.4693 25.3804 14.5375L26.9394 15.4248C27.0035 15.4703 27.0889 15.493 27.1743 15.493C27.3452 15.493 27.4733 15.402 27.5588 15.2655C27.5588 15.2655 27.6655 15.0835 27.9005 14.8105C28.9042 13.6048 30.4846 12.7857 32.1291 12.7857C35.2258 12.7857 37.1051 14.6513 37.1051 17.4041C37.1051 17.6088 37.1051 17.7453 37.1051 18.0638H34.4356C25.0814 18.0638 24.3553 24.434 24.3553 26.3678C24.3553 27.892 24.8465 29.3253 25.7862 30.4628C27.2598 32.2829 29.0964 32.6469 30.7622 32.6469C32.2786 32.6469 34.0725 31.9416 35.4393 31.0316C36.1227 30.5766 36.7634 29.9168 37.3401 29.1888C37.7672 31.2136 39.3476 32.6241 41.1415 32.6469C42.551 32.6469 43.3626 32.3739 44.5158 31.5549C44.8789 31.3046 45.605 30.6448 46.1389 29.9396C47.6125 31.6914 49.6841 32.6469 52.0974 32.6469C54.5748 32.6469 55.6853 32.5559 57.2443 31.6686C57.9918 31.2591 58.9742 30.5538 59.7431 29.6893C60.3197 29.0751 60.939 28.3243 61.4729 27.619V31.9644C61.4729 32.2601 61.6865 32.4876 61.9641 32.4876H63.7794C64.0571 32.4876 64.2706 32.2601 64.2706 31.9644V24.616L66.0005 22.7277C67.9226 25.344 70.8271 29.2798 71.2969 29.8713L71.4251 30.0306C72.258 30.9861 73.5607 32.6469 75.8245 32.6469C75.9099 32.6469 76.7001 32.6469 77.2554 32.3966C78.8785 31.6459 80.0104 30.3263 80.3521 29.9168C80.587 30.1671 81.0141 30.6221 81.2918 30.8496C82.8081 32.1236 84.6661 32.6469 86.8658 32.6469C88.9374 32.6469 90.3683 32.5559 91.8633 32.0326C93.0806 31.6004 95.1949 30.2808 96.3908 29.0068C96.7753 28.5745 97.4373 27.9375 97.9499 27.255C98.1207 30.8041 99.7225 32.6469 103.011 32.6469C104.891 32.6469 105.916 31.5321 106.535 30.8951C106.621 30.8041 108.393 28.9158 108.393 28.9158C108.457 28.8248 108.5 28.7111 108.5 28.5973C108.457 28.5745 108.393 28.438 108.308 28.347ZM36.9983 23.6605C36.9983 26.7318 33.9017 29.6893 31.1039 29.6893C29.0537 29.6893 28.2635 29.1433 27.8578 28.6428C27.3452 28.0058 27.1103 27.3005 27.1103 26.4588C27.1103 23.0007 29.6944 21.1124 34.3928 21.1124H37.0197V23.6605H36.9983ZM81.0996 25.0027C81.0996 25.0027 80.9074 23.7742 80.886 22.0679C80.8647 21.4082 80.886 20.7029 80.9074 19.9066C80.9287 19.1786 81.0355 18.1548 81.1209 17.4496C81.3559 15.7206 82.1247 14.765 83.0003 13.9915C83.9827 13.1498 85.3922 12.672 87.5279 12.672C89.5781 12.672 89.8985 14.037 89.5354 14.7878C88.6384 16.6988 86.3746 18.8601 84.0895 21.5219L81.0996 25.0027Z" fill="#747577"/>
</svg>
