<?xml version="1.0" standalone="no"?>
<!DOCTYPE svg PUBLIC "-//W3C//DTD SVG 20010904//EN"
 "http://www.w3.org/TR/2001/REC-SVG-20010904/DTD/svg10.dtd">
<svg version="1.0" xmlns="http://www.w3.org/2000/svg"
 width="700.000000pt" height="700.000000pt" viewBox="0 0 700.000000 700.000000"
 preserveAspectRatio="xMidYMid meet">
<metadata>
Created by potrace 1.11, written by Peter Selinger 2001-2013
</metadata>
<g transform="translate(0.000000,700.000000) scale(0.100000,-0.100000)"
fill="#000000" stroke="none">
<path d="M0 6055 l0 -945 420 0 420 0 0 525 0 525 1750 0 1750 0 0 420 0 420
-2170 0 -2170 0 0 -945z"/>
<path d="M5110 6580 l0 -420 525 0 525 0 0 -1750 0 -1750 420 0 420 0 0 2170
0 2170 -945 0 -945 0 0 -420z"/>
<path d="M1565 5398 c49 -129 266 -684 275 -703 5 -11 38 -94 74 -185 35 -91
89 -228 119 -305 30 -77 96 -246 146 -375 51 -129 96 -244 101 -255 5 -11 23
-56 40 -100 17 -44 35 -89 40 -100 10 -23 184 -467 186 -475 0 -3 5 -16 11
-30 13 -32 86 -216 169 -430 35 -91 68 -174 73 -185 5 -11 21 -49 34 -85 35
-92 152 -391 162 -415 5 -11 25 -63 45 -115 l37 -95 422 0 423 0 70 180 c38
99 76 194 83 210 7 17 41 101 75 188 33 87 66 171 72 185 6 15 12 32 14 37 2
8 156 400 189 480 4 11 16 40 25 65 29 78 240 614 250 635 5 11 41 103 80 205
39 102 75 194 80 205 14 31 138 348 275 700 37 94 70 179 75 190 5 11 28 67
50 125 22 58 45 114 49 125 5 11 32 81 61 155 28 74 55 144 60 155 5 11 14 32
20 48 l10 27 -421 -2 -421 -3 -74 -190 c-41 -104 -79 -199 -84 -210 -4 -11
-45 -114 -90 -230 -44 -115 -85 -219 -90 -230 -11 -25 -160 -405 -160 -409 0
-2 -8 -21 -17 -42 -9 -22 -17 -44 -19 -49 -1 -6 -11 -32 -23 -57 -11 -26 -21
-52 -21 -58 0 -5 -4 -18 -10 -28 -9 -16 -189 -466 -194 -487 -2 -5 -8 -23 -15
-40 -7 -16 -53 -133 -102 -260 -49 -126 -94 -239 -99 -250 -5 -11 -33 -82 -62
-157 -29 -76 -55 -138 -58 -138 -3 0 -24 48 -47 108 -23 59 -93 238 -156 397
-121 307 -240 613 -419 1070 -61 154 -114 289 -119 300 -10 23 -244 618 -324
825 l-53 135 -420 3 -421 2 24 -62z"/>
<path d="M0 2170 l0 -2170 945 0 945 0 0 420 0 420 -525 0 -525 0 0 1750 0
1750 -420 0 -420 0 0 -2170z"/>
<path d="M6160 1365 l0 -525 -1750 0 -1750 0 0 -420 0 -420 2170 0 2170 0 0
945 0 945 -420 0 -420 0 0 -525z"/>
</g>
</svg>
