<svg width="1600" height="500" viewBox="0 0 1600 500" fill="none" xmlns="http://www.w3.org/2000/svg">
<rect width="1600" height="500" transform="matrix(1 0 0 -1 0 500)" fill="url(#paint0_linear)"/>
<rect width="1600" height="500" transform="matrix(1 0 0 -1 0 500)" fill="url(#paint1_linear)"/>
<g opacity="0.5">
<path d="M785 129H1601.5" stroke="white" stroke-width="2" stroke-dasharray="12 12"/>
<path d="M785 249H1601.5" stroke="white" stroke-width="2" stroke-dasharray="12 12"/>
<path d="M785 369H1601.5" stroke="white" stroke-width="2" stroke-dasharray="12 12"/>
<path opacity="0.5" d="M899 498L899 7.689e-06" stroke="white" stroke-width="2" stroke-dasharray="12 12"/>
<path opacity="0.75" d="M1042 498L1042 7.689e-06" stroke="white" stroke-width="2" stroke-dasharray="12 12"/>
<path d="M1328 500L1328 2.00001" stroke="white" stroke-width="2" stroke-dasharray="12 12"/>
<path opacity="0.9" d="M1185 498L1185 7.689e-06" stroke="white" stroke-width="2" stroke-dasharray="12 12"/>
<path d="M1471 500L1471 2.00001" stroke="white" stroke-width="2" stroke-dasharray="12 12"/>
</g>
<path d="M1290.23 393.71C1300.09 380.134 1313.09 370 1331.5 370V380C1317.46 380 1307.12 387.477 1298.32 399.587C1289.72 411.428 1283.13 426.98 1276.46 442.721C1276.21 443.305 1275.97 443.889 1275.72 444.474C1268.96 460.4 1261.95 476.669 1252.51 487.323C1247.7 492.759 1242.02 497.028 1235.13 498.978C1228.19 500.943 1220.57 500.398 1212.2 497.164C1197.9 491.639 1191.14 478.364 1185.68 467.648C1185.21 466.716 1184.74 465.804 1184.28 464.917C1181.23 459.029 1178.46 454.173 1174.97 450.731C1171.69 447.505 1167.75 445.5 1162 445.5C1156.65 445.5 1152.87 447.793 1149.55 451.812C1146.02 456.078 1143.3 461.923 1140.28 468.569L1140.04 469.108C1137.22 475.302 1134.09 482.203 1129.79 487.52C1125.16 493.24 1118.89 497.5 1110 497.5V487.5C1115.11 487.5 1118.75 485.26 1122.01 481.23C1125.47 476.952 1128.15 471.101 1131.18 464.431L1131.24 464.306C1134.11 457.984 1137.34 450.886 1141.84 445.438C1146.59 439.707 1152.99 435.5 1162 435.5C1170.61 435.5 1177 438.701 1181.98 443.607C1186.75 448.298 1190.15 454.501 1193.16 460.319C1193.55 461.06 1193.93 461.795 1194.3 462.524C1200.17 473.931 1205.23 483.751 1215.8 487.836C1222.57 490.45 1227.94 490.619 1232.4 489.356C1236.92 488.078 1241.06 485.178 1245.03 480.694C1253.16 471.511 1259.57 456.942 1266.51 440.57C1266.82 439.841 1267.13 439.109 1267.44 438.375C1273.94 423.017 1280.94 406.504 1290.23 393.71Z" fill="#747577"/>
<path d="M1332 96.9498L1213.17 96.9498V499.774H1332V96.9498Z" fill="white"/>
<path d="M1213.17 96.9498L1139.5 108.626V499.774H1213.17V96.9498Z" fill="#E6E6E6"/>
<path d="M1020.67 108.626L947 120.302V499.774H1020.67V108.626Z" fill="#E6E6E6"/>
<path d="M1139.5 108.626L1020.67 108.626V499.774H1139.5V108.626Z" fill="white"/>
<path d="M1150.2 268.84C1150.54 269.278 1150.88 269.716 1151.22 269.716H1164.05V308.249C1164.05 309.124 1164.73 310 1165.4 310H1184.32C1185 310 1185.67 309.124 1185.67 308.249V269.716H1198.85C1199.18 269.716 1199.86 269.278 1199.86 268.84C1200.2 268.402 1199.86 267.527 1199.52 267.089L1175.88 236.438C1175.54 236 1175.2 236 1175.2 236C1174.86 236 1174.52 236 1174.52 236.438L1150.88 267.089C1149.86 267.527 1149.86 267.964 1150.2 268.84Z" fill="#B8B8B8"/>
<path d="M1197.87 392.16C1197.55 391.722 1197.22 391.284 1196.9 391.284H1184.56V352.751C1184.56 351.876 1183.91 351 1183.26 351H1165.07C1164.42 351 1163.77 351.876 1163.77 352.751V391.284H1151.11C1150.78 391.284 1150.13 391.722 1150.13 392.16C1149.81 392.598 1150.13 393.473 1150.46 393.911L1173.19 424.562C1173.52 425 1173.84 425 1173.84 425C1174.17 425 1174.49 425 1174.49 424.562L1197.22 393.911C1197.87 393.036 1198.2 392.598 1197.87 392.16Z" fill="#B8B8B8"/>
<path d="M1246.28 365C1246.73 364.532 1247.17 364.064 1247.17 363.596V345.809H1286.22C1287.11 345.809 1288 344.873 1288 343.937V317.725C1288 316.789 1287.11 315.853 1286.22 315.853H1247.17V297.598C1247.17 297.13 1246.73 296.194 1246.28 296.194C1245.84 295.726 1244.95 296.194 1244.51 296.662L1213.44 329.427C1213 329.895 1213 330.363 1213 330.363C1213 330.831 1213 331.299 1213.44 331.299L1244.51 364.064C1244.95 365 1245.84 365 1246.28 365Z" fill="#CCCCCC"/>
<path d="M1104.05 299C1103.62 299.448 1103.2 299.895 1103.2 300.343V317.356H1065.7C1064.85 317.356 1064 318.252 1064 319.147V344.22C1064 345.115 1064.85 346.01 1065.7 346.01H1103.2V363.471C1103.2 363.919 1103.62 364.815 1104.05 364.815C1104.47 365.262 1105.33 364.815 1105.75 364.367L1135.57 333.027C1136 332.579 1136 332.131 1136 332.131C1136 332.131 1136 331.236 1135.57 331.236L1105.75 299.895C1104.9 299 1104.47 299 1104.05 299Z" fill="#CCCCCC"/>
<g opacity="0.2">
<path d="M1212.2 143H1264V159.054H1213.51L1140.83 170.827H1020.75L967 179.291V163.434L1019.48 154.773H1139.52L1212.2 143Z" fill="black"/>
<path d="M1212.2 177.249H1264V193.303H1213.51L1140.83 205.077H1020.75L967 213.54V197.683L1019.48 189.022H1139.52L1212.2 177.249Z" fill="black"/>
<path d="M1095.49 226.482H1019.48L967 235.143L967 251L1020.75 242.537H1095.49V226.482Z" fill="black"/>
</g>
<rect x="956.032" y="317.471" width="114.649" height="139.065" rx="5" fill="white"/>
<rect x="965.586" y="317.471" width="114.649" height="139.065" rx="5" fill="url(#paint2_linear)"/>
<path d="M991.096 376.918H943.734L921 441.331H968.362L991.096 376.918Z" fill="#18191C"/>
<rect x="943.734" y="376.918" width="136.403" height="123.142" fill="#3C3D43"/>
<rect x="1080.14" y="376.918" width="47.3622" height="123.142" fill="#18191C"/>
<path d="M1080.14 376.918H1127.5L1150.23 441.331H1102.87L1080.14 376.918Z" fill="#3C3D43"/>
<rect x="981.509" y="469.275" width="61.5709" height="5.30784" rx="2.65392" fill="white"/>
<path d="M1000.9 401C999.798 401 998.902 401.895 998.902 403V439.837H984.004C982.222 439.837 981.33 441.991 982.59 443.251L1010.43 471.095C1011.21 471.876 1012.48 471.876 1013.26 471.095L1041.11 443.251C1042.37 441.991 1041.47 439.837 1039.69 439.837H1026.03V403C1026.03 401.895 1025.13 401 1024.03 401H1000.9Z" fill="white"/>
<rect x="981" y="337" width="57.3246" height="6.3694" rx="3.1847" fill="#18191C"/>
<rect x="999.047" y="349.739" width="43.5243" height="6.3694" rx="3.1847" fill="white"/>
<rect x="981" y="362.478" width="43.5243" height="6.3694" rx="3.1847" fill="#18191C"/>
<path d="M1260.81 411.143C1279.77 429.607 1305.22 440.289 1331.94 441.077L1331.94 394.51C1317.9 393.749 1304.59 387.98 1294.59 378.243C1284.59 368.505 1278.67 355.542 1277.89 341.864L1230.08 341.864C1230.88 367.887 1241.85 392.679 1260.81 411.143Z" fill="#3C3D43"/>
<path d="M1403.88 269.927C1384.71 250.754 1358.96 239.662 1331.94 238.844V287.198C1346.14 287.988 1359.6 293.979 1369.72 304.09C1379.83 314.201 1385.82 327.662 1386.61 341.864L1434.97 341.864C1434.15 314.843 1423.05 289.1 1403.88 269.927Z" fill="white"/>
<path d="M1403.88 411.143C1423.05 392.679 1434.15 367.887 1434.97 341.864L1386.61 341.864C1385.82 355.541 1379.83 368.505 1369.72 378.243C1359.6 387.98 1346.14 393.749 1331.94 394.51L1331.94 441.077C1358.96 440.289 1384.71 429.607 1403.88 411.143Z" fill="#E6E6E6"/>
<path d="M1331.94 281.148V225.636C1316.88 225.963 1302.01 229.02 1288.08 234.658C1273.32 240.633 1259.91 249.391 1248.61 260.432C1237.31 271.473 1228.35 284.58 1222.23 299.006C1216.46 312.617 1213.33 327.15 1213 341.864L1269.81 341.864C1270.12 334.439 1271.77 327.118 1274.69 320.239C1277.95 312.546 1282.73 305.555 1288.76 299.667C1294.78 293.778 1301.94 289.107 1309.81 285.92C1316.85 283.071 1324.34 281.458 1331.94 281.148Z" fill="url(#paint3_linear)"/>
<rect x="1234" y="439" width="188.063" height="60.7643" fill="white"/>
<path d="M1328.08 478.666L1381.58 460.943H1314.12L1328.08 478.666Z" fill="#E6E6E6"/>
<rect x="1234" y="439" width="80.1167" height="60.7643" fill="#E6E6E6"/>
<path d="M1381.58 460.943H1314.12C1326.4 460.943 1334.74 469.383 1337.38 473.603L1381.58 460.943Z" fill="#FFBE12"/>
<path d="M1238.69 48.3434C1238.69 51.8468 1235.85 54.6869 1232.34 54.6869C1228.84 54.6869 1226 51.8468 1226 48.3434C1226 44.8401 1228.84 42 1232.34 42C1235.85 42 1238.69 44.8401 1238.69 48.3434Z" fill="white"/>
<path d="M1264.06 48.3434C1264.06 51.8468 1261.22 54.6869 1257.72 54.6869C1254.22 54.6869 1251.38 51.8468 1251.38 48.3434C1251.38 44.8401 1254.22 42 1257.72 42C1261.22 42 1264.06 44.8401 1264.06 48.3434Z" fill="white"/>
<path d="M1289.44 48.3434C1289.44 51.8468 1286.6 54.6869 1283.1 54.6869C1279.59 54.6869 1276.75 51.8468 1276.75 48.3434C1276.75 44.8401 1279.59 42 1283.1 42C1286.6 42 1289.44 44.8401 1289.44 48.3434Z" fill="white"/>
<path d="M848.688 346.343C848.688 349.847 845.848 352.687 842.344 352.687C838.84 352.687 836 349.847 836 346.343C836 342.84 838.84 340 842.344 340C845.848 340 848.688 342.84 848.688 346.343Z" fill="white"/>
<path d="M874.063 346.343C874.063 349.847 871.223 352.687 867.719 352.687C864.216 352.687 861.375 349.847 861.375 346.343C861.375 342.84 864.216 340 867.719 340C871.223 340 874.063 342.84 874.063 346.343Z" fill="white"/>
<path d="M899.439 346.343C899.439 349.847 896.599 352.687 893.095 352.687C889.592 352.687 886.751 349.847 886.751 346.343C886.751 342.84 889.592 340 893.095 340C896.599 340 899.439 342.84 899.439 346.343Z" fill="white"/>
<path d="M1071.61 343.687C1071.61 350.694 1065.93 356.374 1058.92 356.374C1051.92 356.374 1046.24 350.694 1046.24 343.687C1046.24 336.68 1051.92 331 1058.92 331C1065.93 331 1071.61 336.68 1071.61 343.687ZM1052.37 343.687C1052.37 347.306 1055.3 350.24 1058.92 350.24C1062.54 350.24 1065.48 347.306 1065.48 343.687C1065.48 340.068 1062.54 337.134 1058.92 337.134C1055.3 337.134 1052.37 340.068 1052.37 343.687Z" fill="#18191C"/>
<path fill-rule="evenodd" clip-rule="evenodd" d="M1046.24 256.343H1005V250H1046.24C1054.99 250 1062.1 257.1 1062.1 265.859V335.636H1055.75V265.859C1055.75 260.604 1051.49 256.343 1046.24 256.343Z" fill="#18191C"/>
<path d="M890 219H1021.43V299.214H890V219Z" fill="#18191C"/>
<path fill-rule="evenodd" clip-rule="evenodd" d="M968.16 226.87L978.829 237.451L985.668 230.668L994.696 239.622L1004.27 230.127C1006.1 228.314 1009.05 228.326 1010.86 230.154C1012.68 231.983 1012.67 234.936 1010.84 236.75L994.696 252.759L985.668 243.805L978.829 250.588L968.16 240.007L936.701 271.208L923.57 258.185L907.978 273.648C906.15 275.462 903.197 275.45 901.383 273.621C899.569 271.792 899.581 268.84 901.41 267.026L923.57 245.048L936.701 258.071L968.16 226.87Z" fill="#18191C"/>
<path d="M896.28 211H1027.28V292H896.28V211Z" fill="white"/>
<path fill-rule="evenodd" clip-rule="evenodd" d="M974.017 223L984.668 233.583L991.495 226.799L1000.51 235.754L1010.04 226.286C1011.85 224.488 1014.79 224.475 1016.62 226.256C1018.45 228.038 1018.46 230.94 1016.65 232.738L1000.51 248.778L991.495 239.824L984.668 246.608L974.017 236.025L942.61 267.23L929.5 254.205L913.964 269.642C912.154 271.441 909.206 271.454 907.379 269.673C905.552 267.891 905.539 264.989 907.348 263.191L929.5 241.181L942.61 254.206L974.017 223Z" fill="#FFBE12"/>
<rect x="851.35" y="409.602" width="100.449" height="41.3915" fill="white"/>
<rect x="851.134" y="456.624" width="115.704" height="41.3531" fill="#E6E6E6"/>
<rect x="754.438" y="453.317" width="218.185" height="5.78943" fill="#18191C"/>
<rect x="754.438" y="493.843" width="218.185" height="5.78943" fill="#18191C"/>
<path d="M760.493 453.299H887.717C887.717 453.299 880.006 453.299 880.006 476.447C880.006 499.596 887.717 499.596 887.717 499.596H760.493C760.493 499.596 752.783 499.596 752.783 476.447C752.783 453.299 760.493 453.299 760.493 453.299Z" fill="#18191C"/>
<path d="M754.711 453.299H881.934C881.934 453.299 874.223 453.299 874.223 476.447C874.223 499.596 881.934 499.596 881.934 499.596H754.711C754.711 499.596 747 499.596 747 476.447C747 453.299 754.711 453.299 754.711 453.299Z" fill="#3C3D43"/>
<rect x="795.191" y="407" width="159.993" height="5.78711" fill="#18191C"/>
<rect x="795.191" y="447.509" width="159.993" height="5.78711" fill="#18191C"/>
<path d="M789.408 407H863.621C863.621 407 855.911 407 855.911 430.149C855.911 453.297 863.621 453.297 863.621 453.297H789.408C789.408 453.297 781.697 453.297 781.697 430.149C781.697 407 789.408 407 789.408 407Z" fill="#18191C"/>
<path d="M789.408 407H857.839C857.839 407 850.128 407 850.128 430.149C850.128 453.297 857.839 453.297 857.839 453.297H789.408C789.408 453.297 781.697 453.297 781.697 430.149C781.697 407 789.408 407 789.408 407Z" fill="url(#paint4_linear)"/>
<path d="M879.909 425.417H907.483C907.483 425.417 912.407 425.419 916.346 431.093C920.285 436.766 923.239 473.66 923.239 473.66L909.452 464.201L895.665 473.66C895.665 473.66 893.696 437.712 888.772 431.093C883.848 424.473 879.909 425.417 879.909 425.417Z" fill="#FFBE12"/>
<path d="M1251 283.687C1251 290.694 1256.68 296.374 1263.69 296.374C1270.7 296.374 1276.38 290.694 1276.38 283.687C1276.38 276.68 1270.7 271 1263.69 271C1256.68 271 1251 276.68 1251 283.687ZM1270.24 283.687C1270.24 287.306 1267.31 290.24 1263.69 290.24C1260.07 290.24 1257.13 287.306 1257.13 283.687C1257.13 280.068 1260.07 277.134 1263.69 277.134C1267.31 277.134 1270.24 280.068 1270.24 283.687Z" fill="#18191C"/>
<path fill-rule="evenodd" clip-rule="evenodd" d="M1276.38 185.343H1317.61V179H1276.38C1267.62 179 1260.52 186.1 1260.52 194.859V275H1266.86V194.859C1266.86 189.604 1271.12 185.343 1276.38 185.343Z" fill="#18191C"/>
<path d="M1464.23 146.344H1308.81V216.121H1464.23V146.344Z" fill="#18191C"/>
<path d="M1470.58 140H1315.15V209.778H1470.58V140Z" fill="white"/>
<path d="M1458 153H1382V165H1458V153Z" fill="#C4C4C4"/>
<path d="M1458 175H1402V188H1458V175Z" fill="#C4C4C4"/>
<path d="M1328 199C1328 185.289 1339.22 174.192 1353 174.192C1353.8 174.192 1354.6 174.263 1355.41 174.334C1368.09 175.535 1378 186.137 1378 199H1328ZM1353.95 152.071C1353.66 152 1353.29 152 1353 152C1347.46 152 1342.94 156.382 1342.94 161.753C1342.94 166.135 1345.93 169.811 1350.01 171.083C1350.96 171.365 1351.91 171.507 1353 171.507C1358.54 171.507 1363.06 167.125 1363.06 161.753C1363.06 156.665 1359.05 152.495 1353.95 152.071Z" fill="#18191C"/>
<path d="M1356 199C1356 190.54 1362.96 183.693 1371.5 183.693C1372 183.693 1372.49 183.737 1372.99 183.78C1380.85 184.522 1387 191.063 1387 199H1356ZM1372.09 170.044C1371.91 170 1371.68 170 1371.5 170C1368.07 170 1365.26 172.704 1365.26 176.018C1365.26 178.722 1367.12 180.989 1369.65 181.774C1370.23 181.949 1370.82 182.036 1371.5 182.036C1374.93 182.036 1377.74 179.332 1377.74 176.018C1377.74 172.878 1375.25 170.305 1372.09 170.044Z" fill="url(#paint5_linear)"/>
<path d="M1331.5 370C1349.56 370 1362.28 378.309 1371.98 390.198C1381.39 401.729 1388.19 416.92 1394.65 431.337L1394.81 431.707C1401.46 446.555 1407.78 460.578 1416.26 470.98C1424.54 481.122 1434.62 487.5 1449 487.5C1463.43 487.5 1474.04 481.079 1482.95 470.855C1492.04 460.43 1499.09 446.363 1506.2 431.582C1506.68 430.588 1507.16 429.59 1507.64 428.59C1514.16 415.02 1520.87 401.029 1529.28 390.279C1538.46 378.545 1550.18 370 1566.5 370V380C1554.32 380 1545.21 386.142 1537.16 396.44C1529.45 406.295 1523.18 419.334 1516.51 433.226C1516.08 434.12 1515.65 435.018 1515.22 435.918C1508.19 450.512 1500.61 465.82 1490.49 477.426C1480.2 489.233 1467.02 497.5 1449 497.5C1430.94 497.5 1418.22 489.191 1408.52 477.302C1399.11 465.771 1392.31 450.58 1385.85 436.163L1385.69 435.793C1379.04 420.945 1372.72 406.922 1364.24 396.52C1355.96 386.378 1345.88 380 1331.5 380V370Z" fill="url(#paint6_linear)"/>
<defs>
<linearGradient id="paint0_linear" x1="800" y1="500" x2="800" y2="12.5" gradientUnits="userSpaceOnUse">
<stop stop-color="#F3F4F4"/>
<stop offset="1" stop-color="white"/>
</linearGradient>
<linearGradient id="paint1_linear" x1="1570" y1="198.5" x2="520.5" y2="74.5002" gradientUnits="userSpaceOnUse">
<stop stop-color="#FFBE12"/>
<stop offset="1" stop-color="white" stop-opacity="0"/>
</linearGradient>
<linearGradient id="paint2_linear" x1="945.5" y1="284.5" x2="1022.91" y2="456.537" gradientUnits="userSpaceOnUse">
<stop stop-color="#FFBE12"/>
<stop offset="1" stop-color="white"/>
</linearGradient>
<linearGradient id="paint3_linear" x1="1212.93" y1="225.636" x2="1333.45" y2="342.999" gradientUnits="userSpaceOnUse">
<stop stop-color="#FFBE12"/>
<stop offset="1" stop-color="white"/>
</linearGradient>
<linearGradient id="paint4_linear" x1="781.645" y1="429.985" x2="857.846" y2="429.985" gradientUnits="userSpaceOnUse">
<stop stop-color="#27292D"/>
<stop offset="1" stop-color="#404247"/>
</linearGradient>
<linearGradient id="paint5_linear" x1="1354.11" y1="208.742" x2="1385.57" y2="174.881" gradientUnits="userSpaceOnUse">
<stop stop-color="white"/>
<stop offset="1" stop-color="#FFBE11"/>
</linearGradient>
<linearGradient id="paint6_linear" x1="1449" y1="370" x2="1545" y2="370" gradientUnits="userSpaceOnUse">
<stop stop-color="white"/>
<stop offset="1" stop-color="white" stop-opacity="0"/>
</linearGradient>
</defs>
</svg>
