<svg width="64" height="64" viewBox="0 0 64 64" fill="none" xmlns="http://www.w3.org/2000/svg">
<path d="M30.6923 0C30.6744 0.153186 30.6652 0.308999 30.6652 0.466948C30.6652 1.73952 32.558 2.98791 33.4884 3.72093C31.6289 5.3261 30.5116 7.03254 30.5116 9.67442C30.5116 11.9326 32.7442 14.5116 34.2326 14.8837C33.4884 16 32.3721 18.926 32.3721 20.4651C32.3721 27.6485 37.8047 31.9833 45.0233 31.9833C48.5357 31.9833 52.4651 29.7674 53.9535 27.1628C53.5814 31.2558 55.814 35.7209 61.0233 37.2093C62.5116 37.6346 62.9666 37.2033 64 36.6995C61.7085 52.1458 48.332 64 32.1733 64C14.4045 64 0 49.6657 0 31.9833C0 14.795 13.6109 0.770176 30.6923 0Z" fill="#FD8F01"/>
<path d="M30.6923 0C30.6744 0.153186 30.6652 0.308999 30.6652 0.466948C30.6652 1.73952 31.2621 2.87341 32.1924 3.60643C30.333 5.2116 29.1571 7.58015 29.1571 10.222C29.1571 12.4802 30.0162 14.5386 31.4269 16.0913C30.9338 17.4617 30.6652 18.9383 30.6652 20.4774C30.6652 27.6608 36.517 33.4841 43.7356 33.4841C47.248 33.4841 50.4369 32.1054 52.7854 29.8621C52.8551 34.0846 56.3165 37.4862 60.5763 37.4862C61.8046 37.4862 62.9666 37.2033 64 36.6995C61.7085 52.1458 48.332 64 32.1733 64C14.4045 64 0 49.6657 0 31.9833C0 14.795 13.6109 0.770176 30.6923 0Z" fill="#FFBE12"/>
<circle cx="17.7209" cy="22.7209" r="3.72093" fill="#18191C"/>
<circle cx="18" cy="44" r="5" fill="#18191C"/>
<circle cx="43.8605" cy="45.8605" r="1.86047" fill="#18191C"/>
<path d="M48.7772 20.8001C48.4906 23.2494 45.5769 24.5467 43.1276 24.2601C40.6783 23.9736 38.3156 20.5606 38.6021 18.1112C38.8886 15.6619 41.7159 15.1039 44.1652 15.3904C46.6145 15.6769 49.0637 18.3508 48.7772 20.8001Z" fill="#FFBE12"/>
<path d="M46.8824 6.00592C46.7051 7.52117 45.2261 9.52037 43.7108 9.3431C42.1955 9.16584 40.3033 6.77225 40.4806 5.25699C40.6579 3.74174 42.8375 3.67861 44.3527 3.85587C45.868 4.03314 47.0596 4.49066 46.8824 6.00592Z" fill="#FFBE12"/>
<circle cx="58.9257" cy="20.604" r="1.87393" transform="rotate(6.67253 58.9257 20.604)" fill="#FFBE12"/>
</svg>