<svg width="11" height="22" viewBox="0 0 11 22" fill="none" xmlns="http://www.w3.org/2000/svg">
<path d="M10.4254 0.00445202L7.82699 0C4.90774 0 3.02119 2.06685 3.02119 5.26585V7.69376H0.408579C0.182818 7.69376 0 7.88921 0 8.13029V11.6481C0 11.8891 0.183027 12.0844 0.408579 12.0844H3.02119V20.9608C3.02119 21.2019 3.20401 21.3971 3.42977 21.3971H6.83848C7.06424 21.3971 7.24706 21.2017 7.24706 20.9608V12.0844H10.3018C10.5276 12.0844 10.7104 11.8891 10.7104 11.6481L10.7116 8.13029C10.7116 8.01453 10.6685 7.90368 10.592 7.82176C10.5155 7.73984 10.4112 7.69376 10.3028 7.69376H7.24706V5.63559C7.24706 4.64635 7.46781 4.14417 8.67458 4.14417L10.425 4.1435C10.6506 4.1435 10.8334 3.94805 10.8334 3.7072V0.44075C10.8334 0.200118 10.6508 0.00489723 10.4254 0.00445202Z" fill="#3D5B96"/>
</svg>
