<svg width="21" height="22" viewBox="0 0 21 22" fill="none" xmlns="http://www.w3.org/2000/svg">
<path d="M20.8334 13.1185V21.3971H16.3681V13.673C16.3681 11.7326 15.7223 10.4084 14.106 10.4084C12.8722 10.4084 12.1379 11.3008 11.8149 12.1641C11.6971 12.4727 11.6668 12.9023 11.6668 13.3343V21.3971H7.19999C7.19999 21.3971 7.26015 8.315 7.19999 6.95959H11.6663V9.00605C11.6573 9.02136 11.6455 9.03786 11.637 9.0527H11.6663V9.00605C12.2597 8.02372 13.3195 6.62042 15.6915 6.62042C18.6303 6.62036 20.8334 8.6839 20.8334 13.1185ZM2.52756 0C0.999488 0 0 1.07729 0 2.49397C0 3.87978 0.970571 4.98977 2.46828 4.98977H2.49811C4.05578 4.98977 5.02451 3.87999 5.02451 2.49397C4.99516 1.07729 4.05578 0 2.52756 0ZM0.265287 21.3971H4.73036V6.95959H0.265287V21.3971Z" fill="#1384BC"/>
</svg>
