<svg width="20" height="19" viewBox="0 0 20 19" fill="none" xmlns="http://www.w3.org/2000/svg">
<path d="M20 11.6489V19H15.7134V12.1412C15.7134 10.4182 15.0933 9.24237 13.5417 9.24237C12.3572 9.24237 11.6524 10.0348 11.3423 10.8014C11.2292 11.0754 11.2001 11.4569 11.2001 11.8405V19H6.91198C6.91198 19 6.96973 7.38348 6.91198 6.17992H11.1997V7.99711C11.191 8.0107 11.1797 8.02536 11.1715 8.03853H11.1997V7.99711C11.7693 7.12483 12.7867 5.87874 15.0638 5.87874C17.885 5.87869 20 7.71105 20 11.6489ZM2.42646 0C0.959506 0 0 0.956606 0 2.21458C0 3.44513 0.931746 4.43077 2.36954 4.43077H2.39818C3.89355 4.43077 4.82352 3.44532 4.82352 2.21458C4.79535 0.956606 3.89355 0 2.42646 0ZM0.254675 19H4.54114V6.17992H0.254675V19Z" fill="#1384BC"/>
</svg>
