<svg width="54" height="54" viewBox="0 0 54 54" fill="none" xmlns="http://www.w3.org/2000/svg">
<path d="M50 24L27 14L30 28L54 39L50 24Z" fill="#18191C"/>
<path d="M27 33.3333L4 43V24L27 14V33.3333Z" fill="#18191C"/>
<path d="M27 33.3333L50 43V24L27 14V33.3333Z" fill="#747577"/>
<path d="M12 29C12 20.5399 18.7347 13.6932 27 13.6932C27.481 13.6932 27.9621 13.7368 28.4431 13.7805C36.0525 14.5218 42 21.0632 42 29H12ZM27.5685 0.043609C27.3936 0 27.1749 0 27 0C23.6764 0 20.965 2.70376 20.965 6.01804C20.965 8.7218 22.758 10.9895 25.207 11.7744C25.7755 11.9489 26.344 12.0361 27 12.0361C30.3236 12.0361 33.035 9.33233 33.035 6.01804C33.035 2.8782 30.6297 0.305263 27.5685 0.043609Z" fill="#FFBE12"/>
<rect x="12" y="29" width="30" height="10" fill="#FFBE12"/>
<path d="M27 33.6296L50 24V44.3704L27 54V33.6296Z" fill="#18191C"/>
<path d="M27 33.6296L4 24V44.3704L27 54V33.6296Z" fill="#747577"/>
<path d="M0 39L23 49L27 33.5675L4 24L0 39Z" fill="#ACACAD"/>
</svg>
