<svg width="54" height="54" viewBox="0 0 54 54" fill="none" xmlns="http://www.w3.org/2000/svg">
<path d="M50 24L27 14L30 28L54 39L50 24Z" fill="#18191C"/>
<path d="M27 33.3333L4 43V24L27 14V33.3333Z" fill="#18191C"/>
<path d="M27 33.3333L50 43V24L27 14V33.3333Z" fill="#747577"/>
<circle cx="27" cy="20" r="8" fill="white"/>
<path d="M45.869 17.0104C45.7816 16.4856 45.1701 16.0483 44.646 16.0483C42.8989 16.0483 41.4138 14.9988 40.7149 13.4246C40.0161 11.8504 40.4529 9.92635 41.7632 8.70196C42.2 8.35213 42.2 7.73993 41.8506 7.30264C40.977 6.16571 39.9287 5.11622 38.8805 4.24165C38.4437 3.89183 37.8322 3.97929 37.4828 4.32911C36.3471 5.55351 34.3379 6.07825 32.7655 5.3786C31.1057 4.67894 30.1448 3.01726 30.2322 1.26812C30.2322 0.743383 29.8828 0.218642 29.2713 0.131185C27.8736 -0.0437284 26.4759 -0.0437284 24.9908 0.131185C24.4667 0.218642 24.0299 0.655924 24.0299 1.18066C24.1172 2.9298 23.069 4.59148 21.4092 5.20368C19.8368 5.81588 17.8276 5.3786 16.692 4.1542C16.3425 3.71691 15.731 3.71692 15.2943 4.06674C14.1586 4.94131 13.1103 5.99079 12.2368 7.12773C11.8874 7.56502 11.9747 8.17721 12.3241 8.52704C13.6345 9.75144 14.0713 11.588 13.3724 13.2497C12.7609 14.8239 11.1011 15.786 9.26667 15.786C8.65517 15.786 8.21839 16.1358 8.13103 16.748C7.95632 18.1473 7.95632 19.6341 8.13103 21.0334C8.21839 21.5581 8.82988 21.9954 9.35402 21.9954C11.0138 21.9954 12.5862 22.9574 13.2851 24.6191C13.9839 26.1933 13.5471 28.1174 12.2368 29.3418C11.8 29.6916 11.8 30.3038 12.1494 30.7411C13.023 31.878 14.0713 32.84 15.1195 33.8021C15.5563 34.1519 16.1678 34.0644 16.5172 33.7146C17.6529 32.4902 19.6621 31.9655 21.2345 32.6651C22.8943 33.3648 23.8552 35.0265 23.7678 36.7756C23.7678 37.3004 24.1172 37.8251 24.7287 37.9125C25.4276 38 26.2138 38 26.9126 38C27.6115 38 28.3103 38 29.0092 37.9125C29.5333 37.8251 29.9701 37.3878 29.9701 36.8631C29.8828 35.1139 30.931 33.4522 32.5908 32.84C34.1632 32.2279 36.1724 32.6651 37.308 33.8895C37.6575 34.3268 38.269 34.3268 38.7057 33.977C39.8414 33.1024 40.8897 32.0529 41.7632 30.916C42.1126 30.4787 42.0253 29.8665 41.6759 29.5167C40.3655 28.2923 39.9287 26.4557 40.6276 24.794C41.2391 23.2198 42.8115 22.2578 44.4713 22.2578H44.7333C45.2575 22.3452 45.7816 21.9079 45.869 21.2957C46.0437 19.8964 46.0437 18.4097 45.869 17.0104ZM27.0874 25.4062C23.5931 25.4062 20.7977 22.6076 20.7977 19.1093C20.7977 15.611 23.5931 12.8124 27.0874 12.8124C30.5816 12.8124 33.377 15.611 33.377 19.1093C33.4644 22.6076 30.5816 25.4062 27.0874 25.4062Z" fill="#FFBE12"/>
<path d="M27 33.6296L50 24V44.3704L27 54V33.6296Z" fill="#18191C"/>
<path d="M27 33.6296L4 24V44.3704L27 54V33.6296Z" fill="#747577"/>
<path d="M0 39L23 49L27 33.5675L4 24L0 39Z" fill="#ACACAD"/>
</svg>
