<svg width="54" height="54" viewBox="0 0 54 54" fill="none" xmlns="http://www.w3.org/2000/svg">
<path d="M50 24L27 14L30 28L54 39L50 24Z" fill="#18191C"/>
<path d="M27 34L4 43V24L27 14V34Z" fill="#18191C"/>
<path d="M27 34L50 43V24L27 14V34Z" fill="#747577"/>
<path d="M15 8L27 13V28L15 22.7826V8Z" fill="#FFBE12"/>
<path d="M39 8L27 13V28L39 22.6419V8Z" fill="#18191C"/>
<path d="M27 13L15 8L27 3L39 8L27 13Z" fill="#FFBE12"/>
<path d="M27 33.6296L50 24V44.3704L27 54V33.6296Z" fill="#18191C"/>
<path d="M27 33.6296L4 24V44.3704L27 54V33.6296Z" fill="#747577"/>
<path d="M0 39L23 49L27 33.5675L4 24L0 39Z" fill="#ACACAD"/>
</svg>
