<svg width="20" height="21" viewBox="0 0 20 21" fill="none" xmlns="http://www.w3.org/2000/svg">
<path d="M0.397971 0.614362C0.928283 0.0628502 1.78809 0.0628502 2.3184 0.614362L19.6023 18.5892C20.1326 19.1407 20.1326 20.0349 19.6023 20.5864C19.072 21.1379 18.2121 21.1379 17.6818 20.5864L0.397971 2.61156C-0.132341 2.06005 -0.132341 1.16587 0.397971 0.614362Z" fill="#2B2E3B"/>
<path d="M0.397734 20.3856C-0.132578 19.8341 -0.132578 18.9399 0.397734 18.3884L17.6816 0.413634C18.2119 -0.137878 19.0717 -0.137878 19.602 0.413634C20.1323 0.965145 20.1323 1.85932 19.602 2.41083L2.31816 20.3856C1.78785 20.9371 0.928046 20.9371 0.397734 20.3856Z" fill="#2B2E3B"/>
</svg>