<svg width="54" height="54" viewBox="0 0 54 54" fill="none" xmlns="http://www.w3.org/2000/svg">
<path d="M50 24L27 14L30 28L54 39L50 24Z" fill="#18191C"/>
<path d="M27 33.3333L4 43V24L27 14V33.3333Z" fill="#18191C"/>
<path d="M27 33.3333L50 43V24L27 14V33.3333Z" fill="#747577"/>
<path d="M11.6757 2.18921H34.3749L43.0541 10.1499V38.6757H11.6757V2.18921Z" fill="#FFBE12"/>
<path d="M43.0541 10.2162L34.2973 2.18921V10.2162H43.0541Z" fill="#18191C"/>
<path d="M27 33.6296L50 24V44.3704L27 54V33.6296Z" fill="#18191C"/>
<path d="M27 33.6296L4 24V44.3704L27 54V33.6296Z" fill="#747577"/>
<path d="M0 39L23 49L27 33.5675L4 24L0 39Z" fill="#ACACAD"/>
</svg>
