<svg width="24" height="24" viewBox="0 0 24 24" fill="none" xmlns="http://www.w3.org/2000/svg">
<rect opacity="0.2" width="24" height="24" rx="4" fill="url(#paint0_linear_19016_25166)"/>
<g clip-path="url(#clip0_19016_25166)">
<path d="M18.75 15.315V17.967C18.7501 18.1569 18.6781 18.3397 18.5487 18.4786C18.4192 18.6176 18.2419 18.7022 18.0525 18.7155C17.7247 18.738 17.457 18.75 17.25 18.75C10.6223 18.75 5.25 13.3778 5.25 6.75C5.25 6.543 5.26125 6.27525 5.2845 5.9475C5.29779 5.75808 5.38244 5.58076 5.52135 5.45131C5.66027 5.32186 5.84312 5.24991 6.033 5.25H8.685C8.77803 5.24991 8.86777 5.28439 8.9368 5.34677C9.00582 5.40914 9.0492 5.49494 9.0585 5.5875C9.07575 5.76 9.0915 5.89725 9.1065 6.0015C9.25555 7.04169 9.561 8.05337 10.0125 9.00225C10.0838 9.15225 10.0373 9.3315 9.90225 9.4275L8.28375 10.584C9.27334 12.8898 11.1109 14.7274 13.4167 15.717L14.5717 14.1015C14.619 14.0355 14.6878 13.9882 14.7664 13.9677C14.8449 13.9473 14.9281 13.9551 15.0015 13.9897C15.9503 14.4404 16.9617 14.7451 18.0015 14.8935C18.1058 14.9085 18.243 14.925 18.414 14.9415C18.5064 14.951 18.592 14.9944 18.6543 15.0634C18.7165 15.1324 18.7509 15.2221 18.7507 15.315H18.75Z" fill="#FD8F01"/>
</g>
<defs>
<linearGradient id="paint0_linear_19016_25166" x1="0" y1="0" x2="24" y2="24" gradientUnits="userSpaceOnUse">
<stop stop-color="#FFBF12"/>
<stop offset="1" stop-color="#FF9000"/>
</linearGradient>
<clipPath id="clip0_19016_25166">
<rect width="18" height="18" fill="white" transform="translate(3 3)"/>
</clipPath>
</defs>
</svg>
