<svg width="86" height="29" viewBox="0 0 86 29" fill="none" xmlns="http://www.w3.org/2000/svg">
<path d="M11.003 6.94166C9.65948 6.94166 8.50306 7.27372 7.51671 7.95366C6.92149 8.36478 6.32628 9.10796 5.8331 9.75627C5.544 8.60197 5.15286 7.1156 5.15286 7.1156H1.34348C1.13941 7.1156 0.969349 7.27372 0.969349 7.47928V8.82334C0.969349 9.0289 1.13941 9.18703 1.36049 9.18703H3.46925C3.46925 9.18703 3.99644 10.9264 4.31956 12.144C3.8774 12.8871 3.45224 13.5354 3.07811 14.1838C0.952343 17.9471 0 20.5403 0 23.3866C0 26.8021 1.61558 29 4.01344 29C6.78544 29 8.45204 26.6914 8.45204 22.675C8.45204 22.596 8.45204 22.343 8.43504 22.1848C9.09828 22.5011 10.0336 22.7541 10.8329 22.7541C13.911 22.7541 16.4619 20.8566 17.0061 18.2475C17.2272 17.1723 17.3122 16.1919 17.3122 14.8637C17.3122 13.4406 17.1422 12.2072 16.8361 11.211C15.9688 8.49128 13.843 6.94166 11.003 6.94166ZM4.01344 27.0393C2.84002 27.0393 2.2108 25.205 2.2108 23.4024C2.2108 21.1096 2.92505 18.5638 5.06782 14.7056C5.69705 17.3937 6.22424 20.6985 6.22424 22.6908C6.22424 23.9875 6.02017 27.0393 4.01344 27.0393ZM14.8123 17.868C14.4722 19.5125 12.7546 20.7775 10.7479 20.7775C9.89756 20.7775 9.03025 20.5087 8.26498 20.2715C7.94186 17.7574 7.24461 14.6581 6.61538 12.2546C7.02353 11.5905 7.31263 11.1003 8.00988 10.3097C9.03025 9.17121 10.0336 8.93403 10.986 8.93403C13.3158 8.93403 14.2851 10.5311 14.6933 11.8119C14.8634 12.3811 15.0844 13.3615 15.0844 14.8953C15.0844 16.0812 15.0164 16.9193 14.8123 17.868Z" fill="#747577"/>
<path d="M85.8469 19.7023L84.7245 18.8484C84.6565 18.801 84.5715 18.7535 84.4694 18.7535C84.3674 18.7535 84.2654 18.801 84.1973 18.8642C83.8402 19.2754 83.143 19.9395 83.0579 20.0185C82.6498 20.3822 82.1056 20.6827 81.5104 20.6827C80.456 20.6827 79.7417 20.3822 79.7417 18.627V9.17121H83.3641C83.5681 9.17121 83.7552 9.01309 83.7552 8.80752V7.46347C83.7552 7.27372 83.5851 7.09978 83.3641 7.09978H79.7588V3.22574C79.7588 3.03599 79.5887 2.87786 79.3676 2.87786H77.9221C77.718 2.87786 77.531 3.03599 77.531 3.24155V7.11559H75.7793C75.5752 7.11559 75.3882 7.27372 75.3882 7.47928V8.82334C75.3882 9.0289 75.5582 9.18702 75.7793 9.18702H77.548V16.2552C77.0378 16.7928 75.6263 18.1843 74.963 18.8168C74.827 18.9433 74.6909 19.054 74.5549 19.1647C73.8236 19.7497 73.0243 20.1134 72.072 20.3822C70.9326 20.7143 69.9462 20.8092 68.4667 20.8092C66.2219 20.8092 65.1335 19.4019 65.1335 19.4019C65.3205 19.2121 67.8885 16.8244 67.8885 16.8244C69.9972 14.8004 71.6978 12.8555 72.055 12.4918C72.055 12.4918 72.4971 12.0649 72.8543 11.4482C73.6366 10.0883 73.6535 8.66521 72.3101 7.66903C71.6638 7.19466 70.5244 6.87841 68.5347 6.92584C65.5756 6.98909 62.6676 8.58615 62.0724 11.4008C61.9023 12.1756 61.7493 13.0611 61.7493 14.7214C61.7493 15.1325 61.7493 15.6543 61.7833 16.0022C61.8173 16.777 61.9193 17.4885 62.0554 18.2159C62.1234 18.548 62.2424 18.7694 62.3785 19.1963C62.0724 19.56 61.7493 19.892 61.2901 20.2399C60.95 20.5087 60.3888 20.5878 60.0997 20.5878H59.9976C59.1983 20.5878 58.6882 20.1767 58.0589 19.5442L57.9569 19.4335C57.6508 19.1172 55.372 16.4133 53.6884 14.3893L59.5385 8.63359C59.6745 8.49127 59.6745 8.2699 59.5215 8.12759L58.4671 7.21047C58.314 7.06816 58.0589 7.08397 57.9229 7.22628L52.0388 13.0294L50.7803 14.2786V0.363686C50.7803 0.173937 50.6103 0 50.3892 0H48.9437C48.7226 0 48.5525 0.158124 48.5525 0.363686V16.4449C48.3654 16.6347 47.3621 17.6309 46.6308 18.374C46.0016 19.0224 45.1343 19.813 44.1649 20.2873C43.4167 20.651 42.9745 20.7775 41.0698 20.7775C39.0801 20.7775 37.3795 19.4967 37.0394 17.868C36.8353 16.9193 36.7673 16.0812 36.7673 14.8795C36.7673 13.5987 36.8693 12.5393 37.0564 11.7328C37.4475 10.1358 39.0971 8.91821 41.0698 8.91821C42.6004 8.91821 43.8588 9.55071 44.471 10.4678C44.5221 10.5469 44.6241 10.6576 44.7261 10.6734C44.8452 10.705 44.9472 10.6734 45.0322 10.6418L46.3077 10.0093C46.4097 9.96183 46.4948 9.85114 46.4948 9.70883C46.4948 9.64558 46.4778 9.59815 46.4438 9.55071L46.3587 9.39258C45.3554 7.84297 43.3827 6.91003 41.0698 6.91003C38.0767 6.91003 35.4748 8.74427 34.8626 11.2584C34.6415 12.2072 34.5225 13.4248 34.5225 14.8479C34.5225 16.1761 34.6075 17.1565 34.8286 18.2317C34.8796 18.5005 35.0326 18.9117 35.1347 19.1647C35.1347 19.1647 34.8456 19.5284 34.2674 20.0343C33.5021 20.6985 32.7028 20.6194 32.3287 20.5403C31.6994 20.4138 31.4273 19.8604 31.4103 19.2595C31.4103 19.2595 31.4103 12.5709 31.4103 12.1123C31.4103 9.04471 28.8424 6.91003 25.1691 6.91003C23.2474 6.91003 21.3597 7.66903 20.1523 8.93402C19.9482 9.13958 19.7782 9.37677 19.6421 9.61396C19.6421 9.61396 19.5911 9.72464 19.5911 9.78789C19.5911 9.93021 19.6761 10.0567 19.8122 10.1041L21.0536 10.7208C21.1046 10.7525 21.1727 10.7683 21.2407 10.7683C21.3767 10.7683 21.4788 10.705 21.5468 10.6101C21.5468 10.6101 21.6318 10.4836 21.8189 10.2939C22.6182 9.45583 23.8766 8.88659 25.1861 8.88659C27.652 8.88659 29.1485 10.1832 29.1485 12.0965C29.1485 12.2388 29.1485 12.3337 29.1485 12.5551H27.0228C19.5741 12.5551 18.9959 16.9825 18.9959 18.3266C18.9959 19.386 19.387 20.3822 20.1353 21.1728C21.3087 22.4378 22.7712 22.6908 24.0977 22.6908C25.3051 22.6908 26.7337 22.2007 27.8221 21.5682C28.3662 21.2519 28.8764 20.7933 29.3356 20.2873C29.6757 21.6947 30.9342 22.675 32.3627 22.6908C33.4851 22.6908 34.1313 22.5011 35.0497 21.9318C35.3388 21.7579 35.917 21.2993 36.3421 20.8092C37.5155 22.0267 39.1651 22.6908 41.0868 22.6908C43.0595 22.6908 43.9439 22.6276 45.1853 22.0109C45.7805 21.7263 46.5628 21.2361 47.175 20.6352C47.6342 20.2083 48.1274 19.6865 48.5525 19.1963V22.2165C48.5525 22.422 48.7226 22.5802 48.9437 22.5802H50.3892C50.6103 22.5802 50.7803 22.422 50.7803 22.2165V17.109L52.1578 15.7966C53.6884 17.615 56.0012 20.3506 56.3753 20.7617L56.4774 20.8724C57.1406 21.5365 58.178 22.6908 59.9806 22.6908C60.0487 22.6908 60.6779 22.6908 61.12 22.5169C62.4125 21.9951 63.3138 21.078 63.5859 20.7933C63.773 20.9673 64.1131 21.2835 64.3342 21.4417C65.5416 22.3272 67.0212 22.6908 68.7728 22.6908C70.4224 22.6908 71.5618 22.6276 72.7522 22.2639C73.7216 21.9635 75.4052 21.0463 76.3575 20.1608C76.6636 19.8604 77.1908 19.4177 77.599 18.9433C77.735 21.41 79.0105 22.6908 81.6294 22.6908C83.126 22.6908 83.9423 21.916 84.4354 21.4733C84.5035 21.41 85.915 20.0976 85.915 20.0976C85.966 20.0343 86 19.9553 86 19.8762C85.966 19.8604 85.915 19.7655 85.8469 19.7023ZM29.0635 16.4449C29.0635 18.5796 26.5976 20.6352 24.3698 20.6352C22.7372 20.6352 22.108 20.2557 21.7849 19.9079C21.3767 19.4651 21.1897 18.9749 21.1897 18.3899C21.1897 15.9864 23.2474 14.6739 26.9888 14.6739H29.0805V16.4449H29.0635ZM64.1811 17.3779C64.1811 17.3779 64.0281 16.524 64.0111 15.3381C63.9941 14.8795 64.0111 14.3893 64.0281 13.8359C64.0451 13.3299 64.1301 12.6183 64.1981 12.1281C64.3852 10.9264 64.9974 10.2623 65.6947 9.72464C66.477 9.13958 67.5994 8.80752 69.3 8.80752C70.9326 8.80752 71.1877 9.75627 70.8986 10.2781C70.1843 11.6063 68.3817 13.1085 66.562 14.9586L64.1811 17.3779Z" fill="#747577"/>
</svg>
