<svg width="61" height="43" viewBox="0 0 61 43" fill="none" xmlns="http://www.w3.org/2000/svg">
<path d="M5.26198 24.7957C5.26198 24.422 5.11387 24.1331 4.81764 23.9288C4.5266 23.7196 4.0147 23.5402 3.28192 23.3907C2.55433 23.2413 1.97487 23.0619 1.54351 22.8527C1.11736 22.6434 0.800341 22.3943 0.59246 22.1053C0.389776 21.8164 0.288434 21.4726 0.288434 21.074C0.288434 20.4114 0.579467 19.8509 1.16153 19.3925C1.7488 18.9342 2.49717 18.705 3.40665 18.705C4.3629 18.705 5.13725 18.9417 5.72971 19.415C6.32737 19.8883 6.6262 20.4936 6.6262 21.231H5.17623C5.17623 20.8523 5.00733 20.526 4.66952 20.252C4.33691 19.9779 3.91595 19.8409 3.40665 19.8409C2.88175 19.8409 2.47118 19.9505 2.17495 20.1698C1.87872 20.389 1.73061 20.6754 1.73061 21.0292C1.73061 21.363 1.86833 21.6146 2.14377 21.784C2.41921 21.9534 2.91553 22.1153 3.63272 22.2697C4.3551 22.4242 4.93977 22.6085 5.38671 22.8228C5.83365 23.037 6.16366 23.2961 6.37674 23.6C6.59502 23.8989 6.70415 24.2651 6.70415 24.6986C6.70415 25.421 6.40273 26.0014 5.79987 26.4398C5.19702 26.8733 4.41487 27.09 3.45342 27.09C2.77781 27.09 2.18015 26.9754 1.66045 26.7462C1.14075 26.517 0.73278 26.1982 0.43655 25.7897C0.145516 25.3761 0 24.9302 0 24.4519H1.44217C1.46816 24.9153 1.66045 25.284 2.01904 25.558C2.38283 25.827 2.86096 25.9615 3.45342 25.9615C3.99911 25.9615 4.43565 25.8569 4.76307 25.6477C5.09568 25.4334 5.26198 25.1494 5.26198 24.7957Z" fill="url(#paint0_linear)"/>
<path d="M12.0831 27.09C10.9397 27.09 10.0095 26.7313 9.29227 26.0139C8.57508 25.2914 8.21649 24.3274 8.21649 23.1217V22.8676C8.21649 22.0655 8.37499 21.3505 8.69201 20.7228C9.01423 20.09 9.46117 19.5968 10.0328 19.2431C10.6097 18.8844 11.2334 18.705 11.9038 18.705C13.0003 18.705 13.8527 19.0513 14.4607 19.7438C15.0688 20.4363 15.3728 21.4278 15.3728 22.7181V23.2936H9.65866C9.67945 24.0907 9.92111 24.7359 10.3836 25.2292C10.8514 25.7174 11.4438 25.9615 12.161 25.9615C12.6703 25.9615 13.1017 25.8619 13.4551 25.6626C13.8085 25.4633 14.1177 25.1993 14.3827 24.8704L15.2636 25.5281C14.5568 26.5694 13.4967 27.09 12.0831 27.09ZM11.9038 19.8409C11.3217 19.8409 10.8332 20.0452 10.4382 20.4537C10.0432 20.8573 9.79898 21.4253 9.70543 22.1576H13.9306V22.053C13.889 21.3505 13.6915 20.8075 13.3381 20.4239C12.9847 20.0352 12.5066 19.8409 11.9038 19.8409Z" fill="url(#paint1_linear)"/>
<path d="M18.413 18.8545L18.4598 19.8708C19.1042 19.0936 19.9462 18.705 20.9856 18.705C22.7681 18.705 23.6672 19.6691 23.6828 21.5972V26.9405H22.2406V21.5897C22.2354 21.0068 22.0951 20.5758 21.8197 20.2968C21.5494 20.0178 21.1259 19.8783 20.549 19.8783C20.0813 19.8783 19.6707 19.9979 19.3173 20.237C18.9639 20.4762 18.6885 20.79 18.491 21.1786V26.9405H17.0488V18.8545H18.413Z" fill="url(#paint2_linear)"/>
<path d="M27.8144 16.8965V18.8545H29.3891V19.9231H27.8144V24.9377C27.8144 25.2615 27.8846 25.5057 28.0249 25.6701C28.1652 25.8295 28.4043 25.9092 28.7421 25.9092C28.9084 25.9092 29.1371 25.8793 29.4281 25.8195V26.9405C29.0487 27.0402 28.6797 27.09 28.3211 27.09C27.6767 27.09 27.1908 26.9032 26.8634 26.5295C26.536 26.1558 26.3723 25.6252 26.3723 24.9377V19.9231H24.8365V18.8545H26.3723V16.8965H27.8144Z" fill="url(#paint3_linear)"/>
<path d="M35.1578 20.095C34.9395 20.0602 34.7031 20.0427 34.4484 20.0427C33.5026 20.0427 32.8607 20.4288 32.5229 21.2011V26.9405H31.0808V18.8545H32.484L32.5073 19.7886C32.9803 19.0662 33.6507 18.705 34.5186 18.705C34.7992 18.705 35.0123 18.7399 35.1578 18.8096V20.095Z" fill="url(#paint4_linear)"/>
<path d="M38.0578 26.9405H36.6156V18.8545H38.0578V26.9405ZM36.4987 16.7096C36.4987 16.4854 36.5688 16.2961 36.7091 16.1417C36.8547 15.9872 37.0677 15.91 37.3484 15.91C37.629 15.91 37.8421 15.9872 37.9876 16.1417C38.1331 16.2961 38.2059 16.4854 38.2059 16.7096C38.2059 16.9338 38.1331 17.1207 37.9876 17.2701C37.8421 17.4196 37.629 17.4943 37.3484 17.4943C37.0677 17.4943 36.8547 17.4196 36.7091 17.2701C36.5688 17.1207 36.4987 16.9338 36.4987 16.7096Z" fill="url(#paint5_linear)"/>
<path d="M45.5804 26.1409C45.0192 26.7736 44.1954 27.09 43.1093 27.09C42.2102 27.09 41.5242 26.8409 41.0512 26.3427C40.5835 25.8395 40.347 25.0971 40.3419 24.1156V18.8545H41.784V24.0783C41.784 25.3039 42.3037 25.9167 43.3431 25.9167C44.4449 25.9167 45.1777 25.5231 45.5415 24.7359V18.8545H46.9836V26.9405H45.6116L45.5804 26.1409Z" fill="url(#paint6_linear)"/>
<path d="M50.5384 18.8545L50.5774 19.7513C51.1958 19.0538 52.0299 18.705 53.0797 18.705C54.2595 18.705 55.0624 19.1384 55.4886 20.0053C55.7692 19.6167 56.133 19.3029 56.5799 19.0637C57.0321 18.8246 57.5648 18.705 58.178 18.705C60.0282 18.705 60.9688 19.6441 61 21.5224V26.9405H59.5578V21.6046C59.5578 21.0267 59.4201 20.5957 59.1447 20.3118C58.8692 20.0228 58.4067 19.8783 57.7571 19.8783C57.2218 19.8783 56.7774 20.0327 56.424 20.3416C56.0706 20.6456 55.8653 21.0566 55.8082 21.5747V26.9405H54.3582V21.642C54.3582 20.4662 53.758 19.8783 52.5574 19.8783C51.6116 19.8783 50.9646 20.2644 50.6164 21.0367V26.9405H49.1742V18.8545H50.5384Z" fill="url(#paint7_linear)"/>
<path d="M40.6667 5.16H47.156V14.62H52.3475V0H40.6667V5.16Z" fill="url(#paint8_linear)"/>
<path d="M35.9078 0H9.08511V14.62H14.2766V5.16H35.9078V0Z" fill="url(#paint9_linear)"/>
<path d="M14.2766 31.39H9.08511V43H20.766V37.84H14.2766V31.39Z" fill="url(#paint10_linear)"/>
<path d="M25.5248 37.84V43H52.3475V31.39H47.156V37.84H25.5248Z" fill="url(#paint11_linear)"/>
<defs>
<linearGradient id="paint0_linear" x1="9.08511" y1="-9.61125e-07" x2="52.0843" y2="43.2616" gradientUnits="userSpaceOnUse">
<stop stop-color="#22C49D"/>
<stop offset="1" stop-color="#11AEBD"/>
</linearGradient>
<linearGradient id="paint1_linear" x1="9.08511" y1="-9.61125e-07" x2="52.0843" y2="43.2616" gradientUnits="userSpaceOnUse">
<stop stop-color="#22C49D"/>
<stop offset="1" stop-color="#11AEBD"/>
</linearGradient>
<linearGradient id="paint2_linear" x1="9.08511" y1="-9.61125e-07" x2="52.0843" y2="43.2616" gradientUnits="userSpaceOnUse">
<stop stop-color="#22C49D"/>
<stop offset="1" stop-color="#11AEBD"/>
</linearGradient>
<linearGradient id="paint3_linear" x1="9.08511" y1="-9.61125e-07" x2="52.0843" y2="43.2616" gradientUnits="userSpaceOnUse">
<stop stop-color="#22C49D"/>
<stop offset="1" stop-color="#11AEBD"/>
</linearGradient>
<linearGradient id="paint4_linear" x1="9.08511" y1="-9.61125e-07" x2="52.0843" y2="43.2616" gradientUnits="userSpaceOnUse">
<stop stop-color="#22C49D"/>
<stop offset="1" stop-color="#11AEBD"/>
</linearGradient>
<linearGradient id="paint5_linear" x1="9.08511" y1="-9.61125e-07" x2="52.0843" y2="43.2616" gradientUnits="userSpaceOnUse">
<stop stop-color="#22C49D"/>
<stop offset="1" stop-color="#11AEBD"/>
</linearGradient>
<linearGradient id="paint6_linear" x1="9.08511" y1="-9.61125e-07" x2="52.0843" y2="43.2616" gradientUnits="userSpaceOnUse">
<stop stop-color="#22C49D"/>
<stop offset="1" stop-color="#11AEBD"/>
</linearGradient>
<linearGradient id="paint7_linear" x1="9.08511" y1="-9.61125e-07" x2="52.0843" y2="43.2616" gradientUnits="userSpaceOnUse">
<stop stop-color="#22C49D"/>
<stop offset="1" stop-color="#11AEBD"/>
</linearGradient>
<linearGradient id="paint8_linear" x1="9.08511" y1="-9.61125e-07" x2="52.0843" y2="43.2616" gradientUnits="userSpaceOnUse">
<stop stop-color="#22C49D"/>
<stop offset="1" stop-color="#11AEBD"/>
</linearGradient>
<linearGradient id="paint9_linear" x1="9.08511" y1="-9.61125e-07" x2="52.0843" y2="43.2616" gradientUnits="userSpaceOnUse">
<stop stop-color="#22C49D"/>
<stop offset="1" stop-color="#11AEBD"/>
</linearGradient>
<linearGradient id="paint10_linear" x1="9.08511" y1="-9.61125e-07" x2="52.0843" y2="43.2616" gradientUnits="userSpaceOnUse">
<stop stop-color="#22C49D"/>
<stop offset="1" stop-color="#11AEBD"/>
</linearGradient>
<linearGradient id="paint11_linear" x1="9.08511" y1="-9.61125e-07" x2="52.0843" y2="43.2616" gradientUnits="userSpaceOnUse">
<stop stop-color="#22C49D"/>
<stop offset="1" stop-color="#11AEBD"/>
</linearGradient>
</defs>
</svg>