<svg width="71" height="50" viewBox="0 0 71 50" fill="none" xmlns="http://www.w3.org/2000/svg">
<path d="M6.1246 28.8322C6.1246 28.3977 5.9522 28.0617 5.60741 27.8242C5.26867 27.5809 4.67284 27.3723 3.81994 27.1985C2.97308 27.0247 2.29862 26.8162 1.79655 26.5729C1.30053 26.3295 0.931544 26.0399 0.689585 25.7039C0.453674 25.3679 0.335719 24.9681 0.335719 24.5047C0.335719 23.7342 0.674462 23.0824 1.35195 22.5495C2.03548 22.0165 2.90654 21.75 3.96511 21.75C5.07813 21.75 5.97942 22.0252 6.66901 22.5755C7.36464 23.1259 7.71246 23.8298 7.71246 24.6872H6.02479C6.02479 24.2469 5.8282 23.8674 5.43502 23.5488C5.04788 23.2302 4.55791 23.0709 3.96511 23.0709C3.35416 23.0709 2.87629 23.1983 2.5315 23.4532C2.18671 23.7081 2.01431 24.0412 2.01431 24.4525C2.01431 24.8407 2.17461 25.1332 2.49521 25.3302C2.8158 25.5272 3.39348 25.7155 4.22824 25.8951C5.06905 26.0746 5.74956 26.289 6.26978 26.5381C6.78999 26.7872 7.1741 27.0885 7.42211 27.4418C7.67617 27.7894 7.80319 28.2152 7.80319 28.7193C7.80319 29.5593 7.45235 30.2342 6.75067 30.744C6.04899 31.248 5.13862 31.5 4.01955 31.5C3.23318 31.5 2.53755 31.3668 1.93265 31.1003C1.32775 30.8338 0.852907 30.463 0.508115 29.988C0.169372 29.5071 0 28.9886 0 28.4325H1.67859C1.70884 28.9713 1.93265 29.4 2.35003 29.7186C2.77346 30.0314 3.32997 30.1878 4.01955 30.1878C4.6547 30.1878 5.16281 30.0662 5.5439 29.8229C5.93103 29.5738 6.1246 29.2435 6.1246 28.8322Z" fill="url(#paint0_linear)"/>
<path d="M14.0639 31.5C12.7331 31.5 11.6504 31.0829 10.8156 30.2487C9.98083 29.4086 9.56345 28.2877 9.56345 26.8857V26.5902C9.56345 25.6575 9.74794 24.8262 10.1169 24.0963C10.492 23.3605 11.0122 22.787 11.6776 22.3757C12.349 21.9586 13.0749 21.75 13.8552 21.75C15.1315 21.75 16.1236 22.1526 16.8313 22.9579C17.539 23.7631 17.8929 24.916 17.8929 26.4164V27.0856H11.242C11.2662 28.0125 11.5475 28.7627 12.0859 29.3362C12.6303 29.904 13.3199 30.1878 14.1546 30.1878C14.7474 30.1878 15.2495 30.072 15.6608 29.8402C16.0722 29.6085 16.4321 29.3015 16.7406 28.9191L17.7659 29.6838C16.9432 30.8946 15.7092 31.5 14.0639 31.5ZM13.8552 23.0709C13.1777 23.0709 12.6091 23.3084 12.1494 23.7834C11.6897 24.2527 11.4054 24.9131 11.2965 25.7647H16.2143V25.643C16.1659 24.8262 15.9361 24.1947 15.5247 23.7487C15.1134 23.2968 14.5569 23.0709 13.8552 23.0709Z" fill="url(#paint1_linear)"/>
<path d="M21.4316 21.9238L21.486 23.1056C22.2361 22.2019 23.216 21.75 24.4258 21.75C26.5006 21.75 27.5471 22.871 27.5652 25.113V31.3262H25.8866V25.1043C25.8806 24.4265 25.7173 23.9254 25.3967 23.6009C25.0821 23.2765 24.5891 23.1143 23.9177 23.1143C23.3733 23.1143 22.8954 23.2533 22.4841 23.5314C22.0728 23.8095 21.7522 24.1745 21.5223 24.6263V31.3262H19.8437V21.9238H21.4316Z" fill="url(#paint2_linear)"/>
<path d="M32.3742 19.6471V21.9238H34.207V23.1664H32.3742V28.9973C32.3742 29.3739 32.4558 29.6578 32.6192 29.8489C32.7825 30.0343 33.0607 30.127 33.4539 30.127C33.6475 30.127 33.9137 30.0922 34.2524 30.0227V31.3262C33.8108 31.4421 33.3813 31.5 32.964 31.5C32.2139 31.5 31.6483 31.2828 31.2672 30.8483C30.8861 30.4138 30.6956 29.7968 30.6956 28.9973V23.1664H28.9081V21.9238H30.6956V19.6471H32.3742Z" fill="url(#paint3_linear)"/>
<path d="M40.9214 23.3663C40.6673 23.3258 40.3921 23.3055 40.0957 23.3055C38.9948 23.3055 38.2478 23.7545 37.8546 24.6524V31.3262H36.176V21.9238H37.8092L37.8364 23.01C38.3869 22.17 39.1672 21.75 40.1774 21.75C40.504 21.75 40.752 21.7906 40.9214 21.8717V23.3663Z" fill="url(#paint4_linear)"/>
<path d="M44.2967 31.3262H42.6181V21.9238H44.2967V31.3262ZM42.482 19.4298C42.482 19.1691 42.5637 18.949 42.727 18.7694C42.8964 18.5898 43.1444 18.5 43.4711 18.5C43.7977 18.5 44.0457 18.5898 44.2151 18.7694C44.3845 18.949 44.4691 19.1691 44.4691 19.4298C44.4691 19.6905 44.3845 19.9078 44.2151 20.0816C44.0457 20.2553 43.7977 20.3422 43.4711 20.3422C43.1444 20.3422 42.8964 20.2553 42.727 20.0816C42.5637 19.9078 42.482 19.6905 42.482 19.4298Z" fill="url(#paint5_linear)"/>
<path d="M53.0527 30.3964C52.3994 31.1321 51.4406 31.5 50.1764 31.5C49.1299 31.5 48.3314 31.2103 47.781 30.631C47.2366 30.0459 46.9613 29.1827 46.9553 28.0414V21.9238H48.6339V27.998C48.6339 29.4231 49.2388 30.1357 50.4486 30.1357C51.7309 30.1357 52.5839 29.678 53.0073 28.7627V21.9238H54.6859V31.3262H53.0889L53.0527 30.3964Z" fill="url(#paint6_linear)"/>
<path d="M58.8234 21.9238L58.8688 22.9666C59.5886 22.1555 60.5594 21.75 61.7813 21.75C63.1545 21.75 64.089 22.254 64.585 23.262C64.9117 22.8102 65.3351 22.4452 65.8553 22.1671C66.3816 21.889 67.0016 21.75 67.7154 21.75C69.8688 21.75 70.9637 22.842 71 25.0261V31.3262H69.3214V25.1217C69.3214 24.4496 69.1611 23.9485 68.8405 23.6183C68.5199 23.2823 67.9816 23.1143 67.2254 23.1143C66.6024 23.1143 66.0852 23.2939 65.6739 23.6531C65.2625 24.0065 65.0236 24.4844 64.9571 25.0869V31.3262H63.2694V25.1651C63.2694 23.7979 62.5707 23.1143 61.1734 23.1143C60.0725 23.1143 59.3194 23.5633 58.9141 24.4612V31.3262H57.2355V21.9238H58.8234Z" fill="url(#paint7_linear)"/>
<path d="M47.3333 6H54.8865V17H60.9291V0H47.3333V6Z" fill="url(#paint8_linear)"/>
<path d="M41.7943 0H10.5745V17H16.617V6H41.7943V0Z" fill="url(#paint9_linear)"/>
<path d="M16.617 36.5H10.5745V50H24.1702V44H16.617V36.5Z" fill="url(#paint10_linear)"/>
<path d="M29.7092 44V50H60.9291V36.5H54.8865V44H29.7092Z" fill="url(#paint11_linear)"/>
<defs>
<linearGradient id="paint0_linear" x1="10.5745" y1="-1.11759e-06" x2="60.5732" y2="50.3534" gradientUnits="userSpaceOnUse">
<stop stop-color="#22C49D"/>
<stop offset="1" stop-color="#11AEBD"/>
</linearGradient>
<linearGradient id="paint1_linear" x1="10.5745" y1="-1.11759e-06" x2="60.5732" y2="50.3534" gradientUnits="userSpaceOnUse">
<stop stop-color="#22C49D"/>
<stop offset="1" stop-color="#11AEBD"/>
</linearGradient>
<linearGradient id="paint2_linear" x1="10.5745" y1="-1.11759e-06" x2="60.5732" y2="50.3534" gradientUnits="userSpaceOnUse">
<stop stop-color="#22C49D"/>
<stop offset="1" stop-color="#11AEBD"/>
</linearGradient>
<linearGradient id="paint3_linear" x1="10.5745" y1="-1.11759e-06" x2="60.5732" y2="50.3534" gradientUnits="userSpaceOnUse">
<stop stop-color="#22C49D"/>
<stop offset="1" stop-color="#11AEBD"/>
</linearGradient>
<linearGradient id="paint4_linear" x1="10.5745" y1="-1.11759e-06" x2="60.5732" y2="50.3534" gradientUnits="userSpaceOnUse">
<stop stop-color="#22C49D"/>
<stop offset="1" stop-color="#11AEBD"/>
</linearGradient>
<linearGradient id="paint5_linear" x1="10.5745" y1="-1.11759e-06" x2="60.5732" y2="50.3534" gradientUnits="userSpaceOnUse">
<stop stop-color="#22C49D"/>
<stop offset="1" stop-color="#11AEBD"/>
</linearGradient>
<linearGradient id="paint6_linear" x1="10.5745" y1="-1.11759e-06" x2="60.5732" y2="50.3534" gradientUnits="userSpaceOnUse">
<stop stop-color="#22C49D"/>
<stop offset="1" stop-color="#11AEBD"/>
</linearGradient>
<linearGradient id="paint7_linear" x1="10.5745" y1="-1.11759e-06" x2="60.5732" y2="50.3534" gradientUnits="userSpaceOnUse">
<stop stop-color="#22C49D"/>
<stop offset="1" stop-color="#11AEBD"/>
</linearGradient>
<linearGradient id="paint8_linear" x1="10.5745" y1="-1.11759e-06" x2="60.5732" y2="50.3534" gradientUnits="userSpaceOnUse">
<stop stop-color="#22C49D"/>
<stop offset="1" stop-color="#11AEBD"/>
</linearGradient>
<linearGradient id="paint9_linear" x1="10.5745" y1="-1.11759e-06" x2="60.5732" y2="50.3534" gradientUnits="userSpaceOnUse">
<stop stop-color="#22C49D"/>
<stop offset="1" stop-color="#11AEBD"/>
</linearGradient>
<linearGradient id="paint10_linear" x1="10.5745" y1="-1.11759e-06" x2="60.5732" y2="50.3534" gradientUnits="userSpaceOnUse">
<stop stop-color="#22C49D"/>
<stop offset="1" stop-color="#11AEBD"/>
</linearGradient>
<linearGradient id="paint11_linear" x1="10.5745" y1="-1.11759e-06" x2="60.5732" y2="50.3534" gradientUnits="userSpaceOnUse">
<stop stop-color="#22C49D"/>
<stop offset="1" stop-color="#11AEBD"/>
</linearGradient>
</defs>
</svg>
