<svg width="375" height="376" viewBox="0 0 375 376" fill="none" xmlns="http://www.w3.org/2000/svg">
<rect width="375" height="376" transform="matrix(1 0 0 -1 0 376)" fill="url(#paint0_linear)"/>
<rect width="375" height="375" transform="matrix(1 0 0 -1 0 375)" fill="url(#paint1_linear)"/>
<g opacity="0.5">
<path d="M0 97H375" stroke="white" stroke-dasharray="8 8"/>
<path d="M0 187H375" stroke="white" stroke-dasharray="8 8"/>
<path d="M0 277H375" stroke="white" stroke-dasharray="12 12"/>
<path d="M167.634 375.102L167.634 2.05975" stroke="white" stroke-dasharray="8 8"/>
<path opacity="0.9" d="M58.5535 372.982L58.5534 0.999992" stroke="white" stroke-dasharray="8 8"/>
<path d="M275.646 375.102L275.645 2.05975" stroke="white" stroke-dasharray="8 8"/>
</g>
<path d="M270.692 327.271C275.222 321.057 281.193 316.419 289.651 316.419V320.996C283.203 320.996 278.45 324.418 274.409 329.96C270.458 335.379 267.43 342.497 264.366 349.701L264.025 350.503C260.922 357.792 257.699 365.237 253.365 370.114C251.154 372.601 248.544 374.555 245.378 375.448C242.189 376.347 238.688 376.097 234.844 374.617C228.276 372.089 225.17 366.013 222.663 361.109L222.662 361.109C222.444 360.682 222.231 360.265 222.02 359.859C220.62 357.165 219.344 354.942 217.739 353.367C216.234 351.89 214.427 350.973 211.783 350.973C209.326 350.973 207.591 352.022 206.063 353.862C204.442 355.814 203.194 358.489 201.806 361.531L201.693 361.777C200.401 364.612 198.96 367.77 196.984 370.204C194.858 372.822 191.976 374.771 187.894 374.771V370.195C190.244 370.195 191.915 369.169 193.412 367.325C195.003 365.367 196.231 362.689 197.624 359.637L197.65 359.579C198.97 356.686 200.453 353.438 202.524 350.944C204.702 348.321 207.643 346.396 211.783 346.396C215.736 346.396 218.675 347.861 220.963 350.106C223.151 352.253 224.716 355.092 226.1 357.755C226.276 358.094 226.45 358.43 226.622 358.764C229.32 363.984 231.643 368.479 236.5 370.348C239.607 371.545 242.076 371.622 244.127 371.044C246.201 370.459 248.102 369.132 249.926 367.08C253.661 362.877 256.606 356.209 259.795 348.716C259.937 348.383 260.08 348.048 260.222 347.712C263.21 340.683 266.423 333.126 270.692 327.271Z" fill="#747577"/>
<path d="M289.881 191.455L235.292 191.455V375.812H289.881V191.455Z" fill="white"/>
<path d="M235.292 191.455L201.446 196.799V375.812H235.292V191.455Z" fill="#E6E6E6"/>
<path d="M146.857 196.799L113.012 202.142V375.812H146.857V196.799Z" fill="#E6E6E6"/>
<path d="M201.447 196.799L146.857 196.799V375.812H201.447V196.799Z" fill="white"/>
<path d="M206.363 270.122C206.518 270.323 206.673 270.523 206.829 270.523H212.726V288.158C212.726 288.559 213.036 288.96 213.347 288.96H222.037C222.348 288.96 222.658 288.559 222.658 288.158V270.523H228.71C228.866 270.523 229.176 270.323 229.176 270.122C229.331 269.922 229.176 269.521 229.021 269.321L218.157 255.293C218.002 255.093 217.847 255.093 217.847 255.093C217.692 255.093 217.537 255.093 217.537 255.293L206.673 269.321C206.208 269.521 206.208 269.722 206.363 270.122Z" fill="#B8B8B8"/>
<path d="M228.263 326.561C228.114 326.361 227.965 326.16 227.815 326.16H222.146V308.525C222.146 308.125 221.848 307.724 221.549 307.724H213.195C212.896 307.724 212.598 308.125 212.598 308.525V326.16H206.78C206.63 326.16 206.332 326.361 206.332 326.561C206.183 326.761 206.332 327.162 206.481 327.363L216.924 341.39C217.074 341.591 217.223 341.591 217.223 341.591C217.372 341.591 217.521 341.591 217.521 341.39L227.965 327.363C228.263 326.962 228.412 326.761 228.263 326.561Z" fill="#B8B8B8"/>
<path d="M250.503 314.131C250.707 313.917 250.911 313.703 250.911 313.488V305.348H268.852C269.26 305.348 269.667 304.92 269.667 304.491V292.495C269.667 292.067 269.26 291.638 268.852 291.638H250.911V283.284C250.911 283.07 250.707 282.641 250.503 282.641C250.299 282.427 249.891 282.641 249.688 282.855L235.416 297.851C235.212 298.065 235.212 298.279 235.212 298.279C235.212 298.493 235.212 298.707 235.416 298.707L249.688 313.703C249.891 314.131 250.299 314.131 250.503 314.131Z" fill="#CCCCCC"/>
<path d="M185.16 283.925C184.964 284.13 184.768 284.335 184.768 284.54V292.326H167.545C167.153 292.326 166.762 292.736 166.762 293.146V304.621C166.762 305.03 167.153 305.44 167.545 305.44H184.768V313.431C184.768 313.636 184.964 314.046 185.16 314.046C185.355 314.251 185.747 314.046 185.943 313.841L199.643 299.498C199.839 299.293 199.839 299.088 199.839 299.088C199.839 299.088 199.839 298.678 199.643 298.678L185.943 284.335C185.551 283.925 185.355 283.925 185.16 283.925Z" fill="#CCCCCC"/>
<g opacity="0.2">
<path d="M234.845 212.53H258.642V219.878H235.446L202.056 225.266H146.892L122.2 229.139V221.882L146.308 217.918H201.455L234.845 212.53Z" fill="black"/>
<path d="M234.845 228.205H258.642V235.552H235.446L202.056 240.94H146.892L122.2 244.814V237.557L146.308 233.593H201.455L234.845 228.205Z" fill="black"/>
<path d="M181.227 250.737H146.308L122.2 254.701L122.2 261.958L146.892 258.084H181.227V250.737Z" fill="black"/>
</g>
<rect x="117.161" y="292.379" width="52.6698" height="63.6448" rx="5" fill="white"/>
<rect x="121.551" y="292.379" width="52.6698" height="63.6448" rx="5" fill="url(#paint2_linear)"/>
<path d="M133.27 319.586H111.512L101.068 349.065H122.826L133.27 319.586Z" fill="#18191C"/>
<rect x="111.512" y="319.586" width="62.6635" height="56.3572" fill="#3C3D43"/>
<rect x="174.175" y="319.586" width="21.7581" height="56.3572" fill="#18191C"/>
<path d="M174.175 319.586H195.933L206.377 349.065H184.619L174.175 319.586Z" fill="#3C3D43"/>
<rect x="128.866" y="361.854" width="28.2857" height="2.42918" rx="1.21459" fill="white"/>
<path d="M137.775 330.607C137.268 330.607 136.856 331.017 136.856 331.522V348.381H130.012C129.193 348.381 128.783 349.367 129.362 349.944L142.154 362.687C142.512 363.044 143.094 363.044 143.453 362.687L156.244 349.944C156.823 349.367 156.413 348.381 155.595 348.381H149.317V331.522C149.317 331.017 148.906 330.607 148.398 330.607H137.775Z" fill="white"/>
<rect x="128.632" y="301.317" width="26.3349" height="2.91502" rx="1.45751" fill="#18191C"/>
<rect x="136.922" y="307.147" width="19.995" height="2.91507" rx="1.45753" fill="white"/>
<rect x="128.632" y="312.977" width="19.995" height="2.91499" rx="1.4575" fill="#18191C"/>
<path d="M257.176 335.249C265.885 343.699 277.578 348.588 289.853 348.949L289.853 327.637C283.401 327.289 277.287 324.648 272.694 320.192C268.101 315.735 265.38 309.802 265.021 303.543L243.057 303.543C243.429 315.452 248.467 326.799 257.176 335.249Z" fill="#3C3D43"/>
<path d="M322.903 270.62C314.094 261.845 302.267 256.769 289.852 256.394V278.524C296.377 278.886 302.562 281.627 307.207 286.255C311.853 290.882 314.605 297.043 314.968 303.543L337.183 303.543C336.807 291.176 331.711 279.394 322.903 270.62Z" fill="white"/>
<path d="M322.903 335.249C331.711 326.799 336.807 315.452 337.183 303.543L314.968 303.543C314.605 309.802 311.853 315.735 307.207 320.192C302.562 324.648 296.377 327.289 289.852 327.637L289.852 348.949C302.267 348.588 314.094 343.699 322.903 335.249Z" fill="#E6E6E6"/>
<path d="M289.853 275.755V250.35C282.935 250.499 276.103 251.898 269.704 254.478C262.923 257.213 256.761 261.221 251.57 266.274C246.38 271.327 242.263 277.326 239.454 283.928C236.803 290.157 235.366 296.809 235.213 303.543L261.309 303.543C261.455 300.144 262.213 296.794 263.553 293.646C265.051 290.125 267.247 286.925 270.015 284.23C272.783 281.536 276.07 279.398 279.686 277.939C282.92 276.635 286.362 275.897 289.853 275.755Z" fill="url(#paint3_linear)"/>
<rect x="244.86" y="347.998" width="86.3962" height="27.8096" fill="white"/>
<path d="M288.078 366.152L312.66 358.041H281.666L288.078 366.152Z" fill="#E6E6E6"/>
<rect x="244.86" y="347.998" width="36.8056" height="27.8096" fill="#E6E6E6"/>
<path d="M312.66 358.041H281.666C287.309 358.041 291.142 361.903 292.353 363.834L312.66 358.041Z" fill="#FFBE12"/>
<path d="M247.013 169.21C247.013 170.813 245.709 172.113 244.099 172.113C242.489 172.113 241.185 170.813 241.185 169.21C241.185 167.606 242.489 166.306 244.099 166.306C245.709 166.306 247.013 167.606 247.013 169.21Z" fill="white"/>
<path d="M258.671 169.21C258.671 170.813 257.366 172.113 255.756 172.113C254.147 172.113 252.842 170.813 252.842 169.21C252.842 167.606 254.147 166.306 255.756 166.306C257.366 166.306 258.671 167.606 258.671 169.21Z" fill="white"/>
<path d="M270.328 169.21C270.328 170.813 269.024 172.113 267.414 172.113C265.805 172.113 264.5 170.813 264.5 169.21C264.5 167.606 265.805 166.306 267.414 166.306C269.024 166.306 270.328 167.606 270.328 169.21Z" fill="white"/>
<path d="M67.8476 305.593C67.8476 307.196 66.5428 308.496 64.9332 308.496C63.3236 308.496 62.0188 307.196 62.0188 305.593C62.0188 303.989 63.3236 302.69 64.9332 302.69C66.5428 302.69 67.8476 303.989 67.8476 305.593Z" fill="white"/>
<path d="M79.5051 305.593C79.5051 307.196 78.2002 308.496 76.5907 308.496C74.9811 308.496 73.6763 307.196 73.6763 305.593C73.6763 303.989 74.9811 302.69 76.5907 302.69C78.2002 302.69 79.5051 303.989 79.5051 305.593Z" fill="white"/>
<path d="M91.1627 305.593C91.1627 307.196 89.8579 308.496 88.2484 308.496C86.6388 308.496 85.334 307.196 85.334 305.593C85.334 303.989 86.6388 302.69 88.2484 302.69C89.8579 302.69 91.1627 303.989 91.1627 305.593Z" fill="white"/>
<path d="M170.258 304.377C170.258 307.584 167.649 310.183 164.43 310.183C161.21 310.183 158.601 307.584 158.601 304.377C158.601 301.17 161.21 298.571 164.43 298.571C167.649 298.571 170.258 301.17 170.258 304.377ZM161.419 304.377C161.419 306.033 162.767 307.376 164.43 307.376C166.092 307.376 167.44 306.033 167.44 304.377C167.44 302.72 166.092 301.378 164.43 301.378C162.767 301.378 161.419 302.72 161.419 304.377Z" fill="#18191C"/>
<path fill-rule="evenodd" clip-rule="evenodd" d="M158.601 264.403H139.657V261.5H158.601C162.625 261.5 165.887 264.749 165.887 268.758V300.692H162.972V268.758C162.972 266.353 161.015 264.403 158.601 264.403Z" fill="#18191C"/>
<path d="M86.8264 247.312H147.206V284.023H86.8264V247.312Z" fill="#18191C"/>
<path fill-rule="evenodd" clip-rule="evenodd" d="M122.733 250.914L127.635 255.757L130.777 252.653L134.924 256.75L139.322 252.405C140.162 251.575 141.518 251.581 142.352 252.417C143.185 253.254 143.179 254.606 142.339 255.436L134.924 262.763L130.777 258.665L127.635 261.769L122.733 256.927L108.281 271.206L102.248 265.246L95.0858 272.323C94.2456 273.153 92.889 273.147 92.0557 272.31C91.2224 271.474 91.2279 270.122 92.0681 269.292L102.248 259.234L108.281 265.194L122.733 250.914Z" fill="#18191C"/>
<path d="M89.7117 243.651H149.893V280.722H89.7117V243.651Z" fill="white"/>
<path fill-rule="evenodd" clip-rule="evenodd" d="M125.424 249.143L130.317 253.986L133.453 250.882L137.594 254.98L141.971 250.647C142.802 249.824 144.157 249.818 144.996 250.633C145.835 251.449 145.841 252.777 145.01 253.6L137.594 260.941L133.453 256.843L130.317 259.947L125.424 255.104L110.995 269.386L104.973 263.425L97.8353 270.49C97.0039 271.313 95.6495 271.319 94.8103 270.503C93.9711 269.688 93.9648 268.36 94.7963 267.537L104.973 257.464L110.995 263.425L125.424 249.143Z" fill="#FFBE12"/>
<rect x="69.0703" y="334.544" width="46.1461" height="18.9433" fill="white"/>
<rect x="68.9714" y="356.064" width="53.1545" height="18.9257" fill="#E6E6E6"/>
<rect x="24.5493" y="354.55" width="100.234" height="2.64958" fill="#18191C"/>
<rect x="24.5493" y="373.097" width="100.234" height="2.64955" fill="#18191C"/>
<path d="M27.3313 354.542H85.7776C85.7776 354.542 82.2354 354.542 82.2354 365.136C82.2354 375.73 85.7776 375.73 85.7776 375.73H27.3313C27.3313 375.73 23.7891 375.73 23.7891 365.136C23.7891 354.542 27.3313 354.542 27.3313 354.542Z" fill="#18191C"/>
<path d="M24.6745 354.542H83.1209C83.1209 354.542 79.5787 354.542 79.5787 365.136C79.5787 375.73 83.1209 375.73 83.1209 375.73H24.6745C24.6745 375.73 21.1323 375.73 21.1323 365.136C21.1323 354.542 24.6745 354.542 24.6745 354.542Z" fill="#3C3D43"/>
<rect x="43.2712" y="333.353" width="73.5007" height="2.64853" fill="#18191C"/>
<rect x="43.2712" y="351.892" width="73.5007" height="2.6485" fill="#18191C"/>
<path d="M40.6145 333.353H74.7082C74.7082 333.353 71.166 333.353 71.166 343.947C71.166 354.541 74.7082 354.541 74.7082 354.541H40.6145C40.6145 354.541 37.0723 354.541 37.0723 343.947C37.0723 333.353 40.6145 333.353 40.6145 333.353Z" fill="#18191C"/>
<path d="M40.6145 333.353H72.0515C72.0515 333.353 68.5093 333.353 68.5093 343.947C68.5093 354.541 72.0515 354.541 72.0515 354.541H40.6145C40.6145 354.541 37.0723 354.541 37.0723 343.947C37.0723 333.353 40.6145 333.353 40.6145 333.353Z" fill="url(#paint4_linear)"/>
<path d="M82.1904 341.782H94.858C94.858 341.782 97.1201 341.783 98.9297 344.379C100.739 346.976 102.097 363.861 102.097 363.861L95.7628 359.531L89.429 363.861C89.429 363.861 88.5242 347.409 86.2621 344.379C84.0001 341.35 82.1904 341.782 82.1904 341.782Z" fill="#FFBE12"/>
<path d="M252.67 276.917C252.67 280.124 255.279 282.723 258.498 282.723C261.718 282.723 264.327 280.124 264.327 276.917C264.327 273.71 261.718 271.111 258.498 271.111C255.279 271.111 252.67 273.71 252.67 276.917ZM261.509 276.917C261.509 278.574 260.161 279.916 258.498 279.916C256.836 279.916 255.488 278.574 255.488 276.917C255.488 275.261 256.836 273.918 258.498 273.918C260.161 273.918 261.509 275.261 261.509 276.917Z" fill="#18191C"/>
<path fill-rule="evenodd" clip-rule="evenodd" d="M264.327 231.909H283.271V229.006H264.327C260.303 229.006 257.041 232.255 257.041 236.264V272.942H259.956V236.264C259.956 233.859 261.913 231.909 264.327 231.909Z" fill="#18191C"/>
<path d="M350.629 214.06H279.226V245.995H350.629V214.06Z" fill="#18191C"/>
<path d="M353.543 211.157H282.141V243.092H353.543V211.157Z" fill="white"/>
<path d="M347.765 217.107H312.851V222.599H347.765V217.107Z" fill="#C4C4C4"/>
<path d="M347.765 227.175H322.039V233.125H347.765V227.175Z" fill="#C4C4C4"/>
<path d="M288.043 238.159C288.043 231.884 293.2 226.806 299.528 226.806C299.897 226.806 300.265 226.838 300.633 226.871C306.46 227.42 311.013 232.272 311.013 238.159H288.043ZM299.964 216.682C299.83 216.649 299.662 216.649 299.528 216.649C296.984 216.649 294.908 218.655 294.908 221.113C294.908 223.118 296.28 224.8 298.156 225.383C298.591 225.512 299.026 225.577 299.528 225.577C302.073 225.577 304.149 223.571 304.149 221.113C304.149 218.784 302.308 216.876 299.964 216.682Z" fill="#18191C"/>
<path d="M300.906 238.159C300.906 234.287 304.104 231.154 308.027 231.154C308.256 231.154 308.484 231.174 308.712 231.194C312.325 231.533 315.148 234.527 315.148 238.159H300.906ZM308.297 224.907C308.214 224.887 308.11 224.887 308.027 224.887C306.449 224.887 305.162 226.124 305.162 227.641C305.162 228.879 306.013 229.917 307.176 230.276C307.446 230.356 307.716 230.396 308.027 230.396C309.605 230.396 310.892 229.158 310.892 227.641C310.892 226.204 309.75 225.027 308.297 224.907Z" fill="url(#paint5_linear)"/>
<path d="M289.651 316.419C297.95 316.419 303.794 320.222 308.25 325.663C312.572 330.941 315.696 337.893 318.661 344.491L318.738 344.66C321.792 351.456 324.693 357.873 328.592 362.634C332.393 367.276 337.023 370.195 343.631 370.195C350.258 370.195 355.133 367.256 359.228 362.577C363.404 357.805 366.642 351.368 369.911 344.603C370.13 344.149 370.35 343.693 370.57 343.236L370.571 343.234C373.563 337.023 376.648 330.62 380.512 325.7C384.729 320.33 390.112 316.419 397.61 316.419V320.996C392.015 320.996 387.831 323.807 384.13 328.52C380.589 333.03 377.711 338.998 374.645 345.355C374.447 345.765 374.249 346.176 374.05 346.588C370.823 353.267 367.34 360.273 362.691 365.584C357.962 370.988 351.91 374.771 343.631 374.771C335.332 374.771 329.488 370.968 325.032 365.527C320.71 360.25 317.586 353.298 314.621 346.7L314.545 346.53C311.491 339.735 308.589 333.317 304.691 328.557C300.889 323.915 296.259 320.996 289.651 320.996V316.419Z" fill="url(#paint6_linear)"/>
<defs>
<linearGradient id="paint0_linear" x1="187.5" y1="0" x2="187.5" y2="376" gradientUnits="userSpaceOnUse">
<stop stop-color="white"/>
<stop offset="1" stop-color="#F4F4F4"/>
</linearGradient>
<linearGradient id="paint1_linear" x1="254.5" y1="252.5" x2="-50.436" y2="102.6" gradientUnits="userSpaceOnUse">
<stop stop-color="#FFBE12"/>
<stop offset="1" stop-color="white" stop-opacity="0"/>
</linearGradient>
<linearGradient id="paint2_linear" x1="112.323" y1="277.289" x2="147.662" y2="356.124" gradientUnits="userSpaceOnUse">
<stop stop-color="#FFBE12"/>
<stop offset="1" stop-color="white"/>
</linearGradient>
<linearGradient id="paint3_linear" x1="235.18" y1="250.35" x2="290.345" y2="304.271" gradientUnits="userSpaceOnUse">
<stop stop-color="#FFBE12"/>
<stop offset="1" stop-color="white"/>
</linearGradient>
<linearGradient id="paint4_linear" x1="37.0484" y1="343.872" x2="72.0548" y2="343.872" gradientUnits="userSpaceOnUse">
<stop stop-color="#27292D"/>
<stop offset="1" stop-color="#404247"/>
</linearGradient>
<linearGradient id="paint5_linear" x1="300.036" y1="242.618" x2="314.43" y2="227.066" gradientUnits="userSpaceOnUse">
<stop stop-color="white"/>
<stop offset="1" stop-color="#FFBE11"/>
</linearGradient>
<linearGradient id="paint6_linear" x1="343.631" y1="316.419" x2="387.733" y2="316.419" gradientUnits="userSpaceOnUse">
<stop stop-color="white"/>
<stop offset="1" stop-color="white" stop-opacity="0"/>
</linearGradient>
</defs>
</svg>
