<svg width="515" height="314" viewBox="0 0 515 314" fill="none" xmlns="http://www.w3.org/2000/svg">
<g opacity="0.5">
<path d="M24.6992 156.494H440.58" stroke="#FFBE12" stroke-width="2" stroke-dasharray="12 12"/>
<path d="M90.1188 231.91L461.942 231.91" stroke="#FFBE12" stroke-width="2" stroke-dasharray="12 12"/>
<path opacity="0.5" d="M96.051 312.665L96.0509 0.404531" stroke="white" stroke-width="2" stroke-dasharray="12 12"/>
<path opacity="0.75" d="M185.578 312.665L185.578 45.0393" stroke="#FFBE12" stroke-width="2" stroke-dasharray="12 12"/>
<path d="M365.148 314L365.148 35.0284" stroke="#FFBE12" stroke-width="2" stroke-dasharray="12 12"/>
<path opacity="0.9" d="M275.029 312.665L275.029 8.99994" stroke="#FFBE12" stroke-width="2" stroke-dasharray="12 12"/>
</g>
<path d="M341.237 247.273C347.417 238.76 355.563 232.406 367.101 232.406V238.676C358.305 238.676 351.821 243.364 346.308 250.958C340.918 258.382 336.788 268.134 332.608 278.003L332.142 279.103C327.909 289.089 323.513 299.29 317.6 305.971C314.584 309.379 311.023 312.056 306.704 313.279C302.354 314.51 297.579 314.169 292.334 312.141C283.374 308.677 279.137 300.353 275.717 293.634L275.716 293.633C275.419 293.049 275.128 292.477 274.84 291.921C272.929 288.229 271.19 285.184 269 283.027C266.947 281.003 264.481 279.746 260.875 279.746C257.523 279.746 255.156 281.184 253.072 283.704C250.86 286.379 249.158 290.044 247.264 294.211L247.111 294.549L247.111 294.549C245.347 298.433 243.382 302.76 240.686 306.094C237.786 309.681 233.855 312.352 228.286 312.352V306.081C231.491 306.081 233.771 304.677 235.814 302.15C237.983 299.467 239.658 295.799 241.559 291.616L241.594 291.538C243.396 287.574 245.418 283.123 248.243 279.707C251.215 276.114 255.227 273.476 260.875 273.476C266.268 273.476 270.276 275.483 273.398 278.559C276.383 281.501 278.517 285.39 280.405 289.038C280.646 289.503 280.883 289.964 281.118 290.421C284.799 297.573 287.967 303.73 294.593 306.292C298.832 307.931 302.2 308.037 304.998 307.245C307.827 306.444 310.42 304.626 312.908 301.814C318.004 296.056 322.021 286.921 326.372 276.655C326.564 276.202 326.756 275.748 326.949 275.292L326.955 275.279C331.031 265.649 335.414 255.295 341.237 247.273Z" fill="#747577"/>
<path d="M367.415 61.1949L292.945 61.1949V313.777H367.415V61.1949Z" fill="white"/>
<path d="M292.945 61.1949L246.774 68.5162V313.777H292.945V61.1949Z" fill="#E6E6E6"/>
<path d="M172.304 68.5162L126.133 75.8375V313.778H172.304V68.5162Z" fill="#E6E6E6"/>
<path d="M246.774 68.5162L172.304 68.5162V313.778H246.774V68.5162Z" fill="white"/>
<path d="M253.481 168.975C253.692 169.25 253.904 169.524 254.116 169.524H262.161V193.685C262.161 194.235 262.584 194.784 263.008 194.784H274.863C275.287 194.784 275.71 194.235 275.71 193.685V169.524H283.967C284.178 169.524 284.602 169.25 284.602 168.975C284.813 168.701 284.602 168.152 284.39 167.877L269.571 148.658C269.359 148.384 269.147 148.384 269.147 148.384C268.935 148.384 268.724 148.384 268.724 148.658L253.904 167.877C253.269 168.152 253.269 168.426 253.481 168.975Z" fill="#B8B8B8"/>
<path d="M283.356 246.3C283.153 246.026 282.949 245.751 282.746 245.751H275.012V221.59C275.012 221.041 274.605 220.492 274.198 220.492H262.8C262.393 220.492 261.986 221.041 261.986 221.59V245.751H254.049C253.845 245.751 253.438 246.026 253.438 246.3C253.235 246.575 253.438 247.124 253.642 247.399L267.889 266.618C268.092 266.892 268.296 266.892 268.296 266.892C268.499 266.892 268.703 266.892 268.703 266.618L282.949 247.399C283.356 246.849 283.56 246.575 283.356 246.3Z" fill="#B8B8B8"/>
<path d="M313.696 229.27C313.974 228.977 314.252 228.683 314.252 228.39V217.237H338.727C339.283 217.237 339.84 216.65 339.84 216.063V199.627C339.84 199.041 339.283 198.454 338.727 198.454H314.252V187.007C314.252 186.714 313.974 186.127 313.696 186.127C313.418 185.833 312.862 186.127 312.583 186.42L293.115 206.965C292.837 207.258 292.837 207.552 292.837 207.552C292.837 207.845 292.837 208.139 293.115 208.139L312.583 228.683C312.862 229.27 313.418 229.27 313.696 229.27Z" fill="#CCCCCC"/>
<path d="M224.555 187.886C224.288 188.167 224.021 188.448 224.021 188.729V199.396H200.525C199.991 199.396 199.457 199.958 199.457 200.519V216.24C199.457 216.802 199.991 217.363 200.525 217.363H224.021V228.312C224.021 228.593 224.288 229.154 224.555 229.154C224.822 229.435 225.356 229.154 225.623 228.873L244.313 209.222C244.58 208.941 244.58 208.661 244.58 208.661C244.58 208.661 244.58 208.099 244.313 208.099L225.623 188.448C225.089 187.886 224.822 187.886 224.555 187.886Z" fill="#CCCCCC"/>
<g opacity="0.2">
<path d="M292.335 90.0698H324.799V100.136H293.155L247.605 107.518H172.352L138.667 112.825V102.883L171.555 97.4519H246.785L292.335 90.0698Z" fill="black"/>
<path d="M292.335 111.545H324.799V121.612H293.155L247.605 128.994H172.352L138.667 134.3V124.358L171.555 118.927H246.785L292.335 111.545Z" fill="black"/>
<path d="M219.19 142.416H171.555L138.667 147.846L138.667 157.789L172.352 152.482H219.19V142.416Z" fill="black"/>
</g>
<rect x="131.793" y="199.468" width="71.8514" height="87.198" rx="5" fill="white"/>
<rect x="137.781" y="199.468" width="71.8514" height="87.198" rx="5" fill="#FFBE12"/>
<path d="M153.768 236.744H124.086L109.838 277.132H139.521L153.768 236.744Z" fill="#18191C"/>
<rect x="124.086" y="236.744" width="85.4848" height="77.2135" fill="#3C3D43"/>
<rect x="209.571" y="236.744" width="29.6822" height="77.2135" fill="#18191C"/>
<path d="M209.571 236.744H239.253L253.5 277.132H223.818L209.571 236.744Z" fill="#3C3D43"/>
<rect x="147.76" y="294.654" width="38.5869" height="3.32817" rx="1.66408" fill="white"/>
<path d="M159.914 251.843C159.221 251.843 158.66 252.405 158.66 253.097V276.195H149.323C148.207 276.195 147.647 277.546 148.437 278.336L165.887 295.795C166.376 296.285 167.17 296.285 167.66 295.795L185.109 278.336C185.899 277.546 185.34 276.195 184.223 276.195H175.659V253.097C175.659 252.405 175.098 251.843 174.406 251.843H159.914Z" fill="white"/>
<rect x="147.441" y="211.714" width="35.9257" height="3.9938" rx="1.9969" fill="#18191C"/>
<rect x="158.751" y="219.701" width="27.2769" height="3.9938" rx="1.9969" fill="white"/>
<rect x="147.441" y="227.689" width="27.2769" height="3.9938" rx="1.9969" fill="#18191C"/>
<path d="M322.799 258.203C334.679 269.781 350.632 276.479 367.376 276.973L367.376 247.774C358.575 247.297 350.234 243.68 343.968 237.574C337.703 231.468 333.991 223.34 333.501 214.763L303.538 214.763C304.045 231.08 310.918 246.626 322.799 258.203Z" fill="#3C3D43"/>
<path d="M412.463 169.657C400.446 157.635 384.311 150.68 367.376 150.167V180.486C376.277 180.982 384.714 184.738 391.051 191.078C397.388 197.418 401.143 205.858 401.638 214.763L431.944 214.763C431.431 197.82 424.479 181.679 412.463 169.657Z" fill="white"/>
<path d="M412.463 258.203C424.479 246.626 431.431 231.08 431.944 214.763L401.638 214.763C401.143 223.34 397.388 231.468 391.051 237.574C384.714 243.68 376.277 247.297 367.376 247.774L367.376 276.973C384.311 276.479 400.446 269.781 412.463 258.203Z" fill="#E6E6E6"/>
<path d="M367.376 176.693V141.885C357.939 142.09 348.619 144.007 339.89 147.542C330.638 151.289 322.232 156.78 315.152 163.703C308.071 170.626 302.454 178.845 298.622 187.89C295.006 196.425 293.046 205.537 292.837 214.763L328.438 214.763C328.636 210.107 329.671 205.517 331.498 201.204C333.542 196.38 336.537 191.997 340.314 188.304C344.09 184.612 348.573 181.683 353.507 179.685C357.919 177.898 362.614 176.887 367.376 176.693Z" fill="#FFBE12"/>
<rect x="305.998" y="275.671" width="117.86" height="38.101" fill="white"/>
<path d="M364.955 300.542L398.489 289.43H356.207L364.955 300.542Z" fill="#E6E6E6"/>
<rect x="305.998" y="275.671" width="50.2096" height="38.101" fill="#E6E6E6"/>
<path d="M398.489 289.43H356.207C363.905 289.43 369.135 294.721 370.787 297.367L398.489 289.43Z" fill="#FFBE12"/>
<path d="M308.935 30.7174C308.935 32.9141 307.155 34.6949 304.96 34.6949C302.764 34.6949 300.984 32.9141 300.984 30.7174C300.984 28.5207 302.764 26.7399 304.96 26.7399C307.155 26.7399 308.935 28.5207 308.935 30.7174Z" fill="#FED430"/>
<path d="M324.838 30.7174C324.838 32.9141 323.058 34.6949 320.863 34.6949C318.667 34.6949 316.887 32.9141 316.887 30.7174C316.887 28.5207 318.667 26.7399 320.863 26.7399C323.058 26.7399 324.838 28.5207 324.838 30.7174Z" fill="#FED430"/>
<path d="M340.742 30.7174C340.742 32.9141 338.962 34.6949 336.766 34.6949C334.57 34.6949 332.79 32.9141 332.79 30.7174C332.79 28.5207 334.57 26.7399 336.766 26.7399C338.962 26.7399 340.742 28.5207 340.742 30.7174Z" fill="#FED430"/>
<path d="M64.5199 217.572C64.5199 219.769 62.7399 221.55 60.5442 221.55C58.3484 221.55 56.5684 219.769 56.5684 217.572C56.5684 215.375 58.3484 213.594 60.5442 213.594C62.7399 213.594 64.5199 215.375 64.5199 217.572Z" fill="#FED430"/>
<path d="M80.4229 217.572C80.4229 219.769 78.6429 221.55 76.4471 221.55C74.2513 221.55 72.4713 219.769 72.4713 217.572C72.4713 215.375 74.2513 213.594 76.4471 213.594C78.6429 213.594 80.4229 215.375 80.4229 217.572Z" fill="#FED430"/>
<path d="M96.3261 217.572C96.3261 219.769 94.5461 221.55 92.3504 221.55C90.1546 221.55 88.3746 219.769 88.3746 217.572C88.3746 215.375 90.1546 213.594 92.3504 213.594C94.5461 213.594 96.3261 215.375 96.3261 217.572Z" fill="#FED430"/>
<path d="M204.227 215.906C204.227 220.3 200.667 223.861 196.276 223.861C191.884 223.861 188.324 220.3 188.324 215.906C188.324 211.513 191.884 207.951 196.276 207.951C200.667 207.951 204.227 211.513 204.227 215.906ZM192.169 215.906C192.169 218.176 194.008 220.015 196.276 220.015C198.544 220.015 200.383 218.176 200.383 215.906C200.383 213.637 198.544 211.797 196.276 211.797C194.008 211.797 192.169 213.637 192.169 215.906Z" fill="#18191C"/>
<path fill-rule="evenodd" clip-rule="evenodd" d="M188.324 161.139H162.482V157.162H188.324C193.814 157.162 198.264 161.614 198.264 167.106V210.858H194.288V167.106C194.288 163.811 191.618 161.139 188.324 161.139Z" fill="#18191C"/>
<path d="M90.4105 137.724H172.779V188.021H90.4105V137.724Z" fill="#18191C"/>
<path fill-rule="evenodd" clip-rule="evenodd" d="M139.394 142.659L146.08 149.293L150.367 145.04L156.024 150.654L162.024 144.701C163.17 143.564 165.02 143.571 166.157 144.718C167.294 145.865 167.286 147.716 166.14 148.854L156.024 158.892L150.367 153.278L146.08 157.531L139.394 150.896L119.678 170.46L111.449 162.294L101.678 171.99C100.532 173.127 98.6809 173.12 97.5441 171.973C96.4073 170.826 96.4149 168.975 97.561 167.838L111.449 154.057L119.678 162.223L139.394 142.659Z" fill="#18191C"/>
<path d="M94.3465 132.708H176.445V183.497H94.3465V132.708Z" fill="white"/>
<path fill-rule="evenodd" clip-rule="evenodd" d="M143.064 140.232L149.739 146.868L154.018 142.614L159.666 148.229L165.638 142.293C166.772 141.165 168.62 141.157 169.765 142.274C170.909 143.391 170.918 145.211 169.784 146.338L159.666 156.396L154.018 150.781L149.739 155.035L143.064 148.399L123.381 167.966L115.166 159.799L105.429 169.478C104.295 170.606 102.447 170.614 101.302 169.497C100.157 168.38 100.149 166.56 101.283 165.433L115.166 151.632L123.381 159.799L143.064 140.232Z" fill="#FFBE12"/>
<rect x="66.1881" y="257.237" width="62.9519" height="25.9537" fill="white"/>
<rect x="66.0529" y="286.722" width="72.5126" height="25.9296" fill="#E6E6E6"/>
<rect x="5.45309" y="284.648" width="136.738" height="3.63014" fill="#18191C"/>
<rect x="5.45309" y="310.059" width="136.738" height="3.63014" fill="#18191C"/>
<path d="M9.24797 284.636H88.9797C88.9797 284.636 84.1475 284.636 84.1475 299.151C84.1475 313.666 88.9797 313.666 88.9797 313.666H9.24797C9.24797 313.666 4.41574 313.666 4.41574 299.151C4.41574 284.636 9.24797 284.636 9.24797 284.636Z" fill="#18191C"/>
<path d="M5.62379 284.636H85.3555C85.3555 284.636 80.5233 284.636 80.5233 299.151C80.5233 313.666 85.3555 313.666 85.3555 313.666H5.62379C5.62379 313.666 0.791565 313.666 0.791565 299.151C0.791565 284.636 5.62379 284.636 5.62379 284.636Z" fill="#3C3D43"/>
<rect x="30.993" y="255.606" width="100.269" height="3.62869" fill="#18191C"/>
<rect x="30.993" y="281.006" width="100.269" height="3.62869" fill="#18191C"/>
<path d="M27.3688 255.606H73.879C73.879 255.606 69.0468 255.606 69.0468 270.12C69.0468 284.635 73.879 284.635 73.879 284.635H27.3688C27.3688 284.635 22.5366 284.635 22.5366 270.12C22.5366 255.606 27.3688 255.606 27.3688 255.606Z" fill="#18191C"/>
<path d="M27.3688 255.606H70.2548C70.2548 255.606 65.4226 255.606 65.4226 270.12C65.4226 284.635 70.2548 284.635 70.2548 284.635H27.3688C27.3688 284.635 22.5366 284.635 22.5366 270.12C22.5366 255.606 27.3688 255.606 27.3688 255.606Z" fill="url(#paint0_linear_19104_7918)"/>
<path d="M84.0862 267.154H101.367C101.367 267.154 104.453 267.155 106.922 270.712C109.39 274.27 111.242 297.404 111.242 297.404L102.601 291.472L93.961 297.404C93.961 297.404 92.7266 274.863 89.6408 270.712C86.5549 266.562 84.0862 267.154 84.0862 267.154Z" fill="#FFBE12"/>
<path d="M316.652 178.285C316.652 182.678 320.212 186.24 324.603 186.24C328.995 186.24 332.555 182.678 332.555 178.285C332.555 173.891 328.995 170.33 324.603 170.33C320.212 170.33 316.652 173.891 316.652 178.285ZM328.71 178.285C328.71 180.554 326.872 182.394 324.603 182.394C322.335 182.394 320.496 180.554 320.496 178.285C320.496 176.015 322.335 174.176 324.603 174.176C326.872 174.176 328.71 176.015 328.71 178.285Z" fill="#18191C"/>
<path fill-rule="evenodd" clip-rule="evenodd" d="M332.555 116.62H358.397V112.643H332.555C327.065 112.643 322.615 117.095 322.615 122.587V172.838H326.591V122.587C326.591 119.292 329.261 116.62 332.555 116.62Z" fill="#18191C"/>
<path d="M450.286 92.1663H352.879V135.919H450.286V92.1663Z" fill="#18191C"/>
<path d="M454.262 88.1887H356.855V131.941H454.262V88.1887Z" fill="white"/>
<path d="M446.38 96.3401H398.75V103.864H446.38V96.3401Z" fill="#C4C4C4"/>
<path d="M446.38 110.135H411.284V118.286H446.38V110.135Z" fill="#C4C4C4"/>
<path d="M364.908 125.183C364.908 116.586 371.942 109.628 380.576 109.628C381.078 109.628 381.581 109.673 382.083 109.717C390.031 110.47 396.243 117.118 396.243 125.183H364.908ZM381.169 95.7573C380.987 95.713 380.758 95.713 380.576 95.713C377.104 95.713 374.272 98.4606 374.272 101.829C374.272 104.576 376.145 106.881 378.703 107.678C379.297 107.856 379.89 107.944 380.576 107.944C384.047 107.944 386.879 105.197 386.879 101.829C386.879 98.6379 384.367 96.0232 381.169 95.7573Z" fill="#18191C"/>
<path d="M382.456 125.183C382.456 119.879 386.817 115.586 392.17 115.586C392.481 115.586 392.793 115.613 393.104 115.64C398.032 116.105 401.884 120.207 401.884 125.183H382.456ZM392.538 107.027C392.425 107 392.283 107 392.17 107C390.017 107 388.261 108.695 388.261 110.773C388.261 112.468 389.423 113.89 391.009 114.383C391.377 114.492 391.745 114.547 392.17 114.547C394.322 114.547 396.078 112.851 396.078 110.773C396.078 108.804 394.52 107.191 392.538 107.027Z" fill="#FFBE12"/>
<path d="M367.101 232.406C378.422 232.406 386.394 237.616 392.473 245.071C398.369 252.301 402.632 261.826 406.676 270.865L406.78 271.098C410.947 280.408 414.904 289.2 420.223 295.723C425.409 302.082 431.725 306.081 440.739 306.081C449.78 306.081 456.43 302.055 462.017 295.644C467.714 289.107 472.131 280.287 476.59 271.019C476.89 270.396 477.19 269.77 477.491 269.143C481.573 260.634 485.782 251.861 491.052 245.121C496.805 237.763 504.149 232.406 514.377 232.406V238.676C506.745 238.676 501.037 242.527 495.988 248.984C491.157 255.164 487.231 263.339 483.048 272.05C482.779 272.611 482.509 273.174 482.237 273.738C477.835 282.889 473.083 292.488 466.741 299.765C460.29 307.168 452.034 312.352 440.739 312.352C429.419 312.352 421.447 307.142 415.367 299.687C409.471 292.457 405.209 282.932 401.164 273.892L401.06 273.66C396.894 264.349 392.936 255.557 387.618 249.035C382.432 242.675 376.115 238.676 367.101 238.676V232.406Z" fill="url(#paint1_linear_19104_7918)"/>
<defs>
<linearGradient id="paint0_linear_19104_7918" x1="22.504" y1="270.018" x2="70.2593" y2="270.018" gradientUnits="userSpaceOnUse">
<stop stop-color="#27292D"/>
<stop offset="1" stop-color="#404247"/>
</linearGradient>
<linearGradient id="paint1_linear_19104_7918" x1="440.739" y1="232.406" x2="500.903" y2="232.406" gradientUnits="userSpaceOnUse">
<stop stop-color="#FFAE12"/>
<stop offset="1" stop-color="#FFAE12" stop-opacity="0"/>
</linearGradient>
</defs>
</svg>
